<svg class="f250-wheel" viewBox="0 0 660 660" xmlns="http://www.w3.org/2000/svg" style="width:100%;height:auto;display:block" font-family="Iowan Old Style,Palatino,Georgia,serif"><path d="M330 54 A276 276 0 0 0 192 90.98 L210 122.15 A240 240 0 0 1 330 90 Z" fill="#b3402e" fill-opacity="0.10" stroke="#d9cfb8" stroke-width="1"/><text x="263.22" y="80.79" text-anchor="middle" dominant-baseline="central" font-size="13.5" font-style="italic" fill="#b3402e">Ari</text><path d="M192 90.98 A276 276 0 0 0 90.98 192 L122.15 210 A240 240 0 0 1 210 122.15 Z" fill="#4a7d5f" fill-opacity="0.10" stroke="#d9cfb8" stroke-width="1"/><text x="147.57" y="147.57" text-anchor="middle" dominant-baseline="central" font-size="13.5" font-style="italic" fill="#4a7d5f">Tau</text><path d="M90.98 192 A276 276 0 0 0 54 330 L90 330 A240 240 0 0 1 122.15 210 Z" fill="#a8821f" fill-opacity="0.10" stroke="#d9cfb8" stroke-width="1"/><text x="80.79" y="263.22" text-anchor="middle" dominant-baseline="central" font-size="13.5" font-style="italic" fill="#a8821f">Gem</text><path d="M54 330 A276 276 0 0 0 90.98 468 L122.15 450 A240 240 0 0 1 90 330 Z" fill="#3a6ea5" fill-opacity="0.10" stroke="#d9cfb8" stroke-width="1"/><text x="80.79" y="396.78" text-anchor="middle" dominant-baseline="central" font-size="13.5" font-style="italic" fill="#3a6ea5">Can</text><path d="M90.98 468 A276 276 0 0 0 192 569.02 L210 537.85 A240 240 0 0 1 122.15 450 Z" fill="#b3402e" fill-opacity="0.10" stroke="#d9cfb8" stroke-width="1"/><text x="147.57" y="512.43" text-anchor="middle" dominant-baseline="central" font-size="13.5" font-style="italic" fill="#b3402e">Leo</text><path d="M192 569.02 A276 276 0 0 0 330 606 L330 570 A240 240 0 0 1 210 537.85 Z" fill="#4a7d5f" fill-opacity="0.10" stroke="#d9cfb8" stroke-width="1"/><text x="263.22" y="579.21" text-anchor="middle" dominant-baseline="central" font-size="13.5" font-style="italic" fill="#4a7d5f">Vir</text><path d="M330 606 A276 276 0 0 0 468 569.02 L450 537.85 A240 240 0 0 1 330 570 Z" fill="#a8821f" fill-opacity="0.10" stroke="#d9cfb8" stroke-width="1"/><text x="396.78" y="579.21" text-anchor="middle" dominant-baseline="central" font-size="13.5" font-style="italic" fill="#a8821f">Lib</text><path d="M468 569.02 A276 276 0 0 0 569.02 468 L537.85 450 A240 240 0 0 1 450 537.85 Z" fill="#3a6ea5" fill-opacity="0.10" stroke="#d9cfb8" stroke-width="1"/><text x="512.43" y="512.43" text-anchor="middle" dominant-baseline="central" font-size="13.5" font-style="italic" fill="#3a6ea5">Sco</text><path d="M569.02 468 A276 276 0 0 0 606 330 L570 330 A240 240 0 0 1 537.85 450 Z" fill="#b3402e" fill-opacity="0.10" stroke="#d9cfb8" stroke-width="1"/><text x="579.21" y="396.78" text-anchor="middle" dominant-baseline="central" font-size="13.5" font-style="italic" fill="#b3402e">Sag</text><path d="M606 330 A276 276 0 0 0 569.02 192 L537.85 210 A240 240 0 0 1 570 330 Z" fill="#4a7d5f" fill-opacity="0.10" stroke="#d9cfb8" stroke-width="1"/><text x="579.21" y="263.22" text-anchor="middle" dominant-baseline="central" font-size="13.5" font-style="italic" fill="#4a7d5f">Cap</text><path d="M569.02 192 A276 276 0 0 0 468 90.98 L450 122.15 A240 240 0 0 1 537.85 210 Z" fill="#a8821f" fill-opacity="0.10" stroke="#d9cfb8" stroke-width="1"/><text x="512.43" y="147.57" text-anchor="middle" dominant-baseline="central" font-size="13.5" font-style="italic" fill="#a8821f">Aqu</text><path d="M468 90.98 A276 276 0 0 0 330 54 L330 90 A240 240 0 0 1 450 122.15 Z" fill="#3a6ea5" fill-opacity="0.10" stroke="#d9cfb8" stroke-width="1"/><text x="396.78" y="80.79" text-anchor="middle" dominant-baseline="central" font-size="13.5" font-style="italic" fill="#3a6ea5">Pis</text><line x1="330" y1="90" x2="330" y2="98" stroke="#c9bda0" stroke-width="1.4"/><line x1="288.32" y1="93.65" x2="289.02" y2="97.59" stroke="#c9bda0" stroke-width="0.7"/><line x1="247.92" y1="104.47" x2="249.28" y2="108.23" stroke="#c9bda0" stroke-width="0.7"/><line x1="210" y1="122.15" x2="214" y2="129.08" stroke="#c9bda0" stroke-width="1.4"/><line x1="175.73" y1="146.15" x2="178.3" y2="149.21" stroke="#c9bda0" stroke-width="0.7"/><line x1="146.15" y1="175.73" x2="149.21" y2="178.3" stroke="#c9bda0" stroke-width="0.7"/><line x1="122.15" y1="210" x2="129.08" y2="214" stroke="#c9bda0" stroke-width="1.4"/><line x1="104.47" y1="247.92" x2="108.23" y2="249.28" stroke="#c9bda0" stroke-width="0.7"/><line x1="93.65" y1="288.32" x2="97.59" y2="289.02" stroke="#c9bda0" stroke-width="0.7"/><line x1="90" y1="330" x2="98" y2="330" stroke="#c9bda0" stroke-width="1.4"/><line x1="93.65" y1="371.68" x2="97.59" y2="370.98" stroke="#c9bda0" stroke-width="0.7"/><line x1="104.47" y1="412.08" x2="108.23" y2="410.72" stroke="#c9bda0" stroke-width="0.7"/><line x1="122.15" y1="450" x2="129.08" y2="446" stroke="#c9bda0" stroke-width="1.4"/><line x1="146.15" y1="484.27" x2="149.21" y2="481.7" stroke="#c9bda0" stroke-width="0.7"/><line x1="175.73" y1="513.85" x2="178.3" y2="510.79" stroke="#c9bda0" stroke-width="0.7"/><line x1="210" y1="537.85" x2="214" y2="530.92" stroke="#c9bda0" stroke-width="1.4"/><line x1="247.92" y1="555.53" x2="249.28" y2="551.77" stroke="#c9bda0" stroke-width="0.7"/><line x1="288.32" y1="566.35" x2="289.02" y2="562.41" stroke="#c9bda0" stroke-width="0.7"/><line x1="330" y1="570" x2="330" y2="562" stroke="#c9bda0" stroke-width="1.4"/><line x1="371.68" y1="566.35" x2="370.98" y2="562.41" stroke="#c9bda0" stroke-width="0.7"/><line x1="412.08" y1="555.53" x2="410.72" y2="551.77" stroke="#c9bda0" stroke-width="0.7"/><line x1="450" y1="537.85" x2="446" y2="530.92" stroke="#c9bda0" stroke-width="1.4"/><line x1="484.27" y1="513.85" x2="481.7" y2="510.79" stroke="#c9bda0" stroke-width="0.7"/><line x1="513.85" y1="484.27" x2="510.79" y2="481.7" stroke="#c9bda0" stroke-width="0.7"/><line x1="537.85" y1="450" x2="530.92" y2="446" stroke="#c9bda0" stroke-width="1.4"/><line x1="555.53" y1="412.08" x2="551.77" y2="410.72" stroke="#c9bda0" stroke-width="0.7"/><line x1="566.35" y1="371.68" x2="562.41" y2="370.98" stroke="#c9bda0" stroke-width="0.7"/><line x1="570" y1="330" x2="562" y2="330" stroke="#c9bda0" stroke-width="1.4"/><line x1="566.35" y1="288.32" x2="562.41" y2="289.02" stroke="#c9bda0" stroke-width="0.7"/><line x1="555.53" y1="247.92" x2="551.77" y2="249.28" stroke="#c9bda0" stroke-width="0.7"/><line x1="537.85" y1="210" x2="530.92" y2="214" stroke="#c9bda0" stroke-width="1.4"/><line x1="513.85" y1="175.73" x2="510.79" y2="178.3" stroke="#c9bda0" stroke-width="0.7"/><line x1="484.27" y1="146.15" x2="481.7" y2="149.21" stroke="#c9bda0" stroke-width="0.7"/><line x1="450" y1="122.15" x2="446" y2="129.08" stroke="#c9bda0" stroke-width="1.4"/><line x1="412.08" y1="104.47" x2="410.72" y2="108.23" stroke="#c9bda0" stroke-width="0.7"/><line x1="371.68" y1="93.65" x2="370.98" y2="97.59" stroke="#c9bda0" stroke-width="0.7"/><circle cx="330" cy="330" r="240" fill="none" stroke="#d9cfb8" stroke-width="1"/><circle cx="330" cy="330" r="148" fill="none" stroke="#e7dcc2" stroke-width="1"/><g class="f250-hs f250-hs-ws"><line x1="182" y1="330" x2="90" y2="330" stroke="#e7dcc2" stroke-width="0.8"/><text x="175.45" y="371.41" text-anchor="middle" dominant-baseline="central" font-size="9.5" fill="#b5a98c">1</text><line x1="201.83" y1="404" x2="122.15" y2="450" stroke="#e7dcc2" stroke-width="0.8"/><text x="216.86" y="443.14" text-anchor="middle" dominant-baseline="central" font-size="9.5" fill="#b5a98c">2</text><line x1="256" y1="458.17" x2="210" y2="537.85" stroke="#e7dcc2" stroke-width="0.8"/><text x="288.59" y="484.55" text-anchor="middle" dominant-baseline="central" font-size="9.5" fill="#b5a98c">3</text><line x1="330" y1="478" x2="330" y2="570" stroke="#e7dcc2" stroke-width="0.8"/><text x="371.41" y="484.55" text-anchor="middle" dominant-baseline="central" font-size="9.5" fill="#b5a98c">4</text><line x1="404" y1="458.17" x2="450" y2="537.85" stroke="#e7dcc2" stroke-width="0.8"/><text x="443.14" y="443.14" text-anchor="middle" dominant-baseline="central" font-size="9.5" fill="#b5a98c">5</text><line x1="458.17" y1="404" x2="537.85" y2="450" stroke="#e7dcc2" stroke-width="0.8"/><text x="484.55" y="371.41" text-anchor="middle" dominant-baseline="central" font-size="9.5" fill="#b5a98c">6</text><line x1="478" y1="330" x2="570" y2="330" stroke="#e7dcc2" stroke-width="0.8"/><text x="484.55" y="288.59" text-anchor="middle" dominant-baseline="central" font-size="9.5" fill="#b5a98c">7</text><line x1="458.17" y1="256" x2="537.85" y2="210" stroke="#e7dcc2" stroke-width="0.8"/><text x="443.14" y="216.86" text-anchor="middle" dominant-baseline="central" font-size="9.5" fill="#b5a98c">8</text><line x1="404" y1="201.83" x2="450" y2="122.15" stroke="#e7dcc2" stroke-width="0.8"/><text x="371.41" y="175.45" text-anchor="middle" dominant-baseline="central" font-size="9.5" fill="#b5a98c">9</text><line x1="330" y1="182" x2="330" y2="90" stroke="#e7dcc2" stroke-width="0.8"/><text x="288.59" y="175.45" text-anchor="middle" dominant-baseline="central" font-size="9.5" fill="#b5a98c">10</text><line x1="256" y1="201.83" x2="210" y2="122.15" stroke="#e7dcc2" stroke-width="0.8"/><text x="216.86" y="216.86" text-anchor="middle" dominant-baseline="central" font-size="9.5" fill="#b5a98c">11</text><line x1="201.83" y1="256" x2="122.15" y2="210" stroke="#e7dcc2" stroke-width="0.8"/><text x="175.45" y="288.59" text-anchor="middle" dominant-baseline="central" font-size="9.5" fill="#b5a98c">12</text></g><line x1="90.31" y1="342.11" x2="40.37" y2="344.63" stroke="#7a2e1d" stroke-width="1.6"/><text x="28.38" y="345.23" text-anchor="middle" dominant-baseline="central" font-size="11" font-weight="bold" fill="#7a2e1d">AS</text><line x1="184.1" y1="324.72" x2="184.1" y2="324.72" stroke="#c9a227" stroke-width="2.4" stroke-opacity="0.9"/><line x1="313.12" y1="184.98" x2="447.24" y2="242.99" stroke="#3a6ea5" stroke-width="2.4" stroke-opacity="0.9"/><line x1="194.88" y1="274.7" x2="313.12" y2="184.98" stroke="#3a6ea5" stroke-width="1" stroke-opacity="0.45"/><line x1="194.88" y1="274.7" x2="447.24" y2="242.99" stroke="#3a6ea5" stroke-width="1" stroke-opacity="0.45"/><line x1="184.1" y1="324.72" x2="264.68" y2="199.43" stroke="#3a6ea5" stroke-width="1" stroke-opacity="0.45"/><line x1="184.1" y1="324.72" x2="264.68" y2="199.43" stroke="#3a6ea5" stroke-width="1" stroke-opacity="0.45"/><line x1="246.67" y1="449.89" x2="264.68" y2="199.43" stroke="#3a6ea5" stroke-width="1" stroke-opacity="0.45"/><line x1="185.94" y1="353.71" x2="313.12" y2="184.98" stroke="#b3402e" stroke-width="1" stroke-opacity="0.45"/><line x1="184.1" y1="324.72" x2="246.67" y2="449.89" stroke="#3a6ea5" stroke-width="1" stroke-opacity="0.45"/><line x1="184.1" y1="324.72" x2="246.67" y2="449.89" stroke="#3a6ea5" stroke-width="1" stroke-opacity="0.45"/><line x1="201.75" y1="260.23" x2="447.24" y2="242.99" stroke="#3a6ea5" stroke-width="1" stroke-opacity="0.45"/><line x1="184.1" y1="324.72" x2="310.44" y2="474.68" stroke="#b3402e" stroke-width="1" stroke-opacity="0.45"/><line x1="184.1" y1="324.72" x2="310.44" y2="474.68" stroke="#b3402e" stroke-width="1" stroke-opacity="0.45"/><line x1="201.75" y1="260.23" x2="246.67" y2="449.89" stroke="#b3402e" stroke-width="1" stroke-opacity="0.45"/><line x1="201.75" y1="260.23" x2="194.88" y2="274.7" stroke="#c9a227" stroke-width="1" stroke-opacity="0.45"/><line x1="416.46" y1="447.65" x2="447.24" y2="242.99" stroke="#b3402e" stroke-width="2.4" stroke-opacity="0.9"/><line x1="93.19" y1="368.98" x2="105.03" y2="367.03" stroke="#5b554a" stroke-width="1.3"/><circle cx="185.94" cy="353.71" r="2.2" fill="#5b554a"/><g transform="translate(116.23 352.96) scale(1.05)" color="#b07d2b" stroke="currentColor" stroke-width="1.6" stroke-linecap="round" fill="none" data-kk="planet:Sun;sign:Cancer" style="cursor:pointer"><circle cx="10" cy="10" r="13" fill="transparent" stroke="none"/><circle cx="10" cy="10" r="5.6"/><circle cx="10" cy="10" r="1.5" fill="currentColor" stroke="none"/></g><text x="148.44" y="359.88" text-anchor="middle" dominant-baseline="central" font-size="8.5" fill="#8a8377">9°</text><line x1="119.18" y1="215.31" x2="129.72" y2="221.05" stroke="#5b554a" stroke-width="1.3"/><circle cx="201.75" cy="260.23" r="2.2" fill="#5b554a"/><g transform="translate(133.57 230.81) scale(1.05)" color="#8d7960" stroke="currentColor" stroke-width="1.6" stroke-linecap="round" fill="none" data-kk="planet:Moon;sign:Gemini" style="cursor:pointer"><circle cx="10" cy="10" r="13" fill="transparent" stroke="none"/><path d="M 11.5 3.9 A 6.3 6.3 0 1 0 11.5 16.1 A 7.1 7.1 0 0 1 11.5 3.9 Z" fill="currentColor" stroke="none"/></g><text x="163.92" y="250.79" text-anchor="middle" dominant-baseline="central" font-size="8.5" fill="#8a8377">1°</text><line x1="133.24" y1="236.15" x2="131.47" y2="222" stroke="#c9bda0" stroke-width="0.6"/><line x1="90.16" y1="321.31" x2="102.15" y2="321.75" stroke="#5b554a" stroke-width="1.3"/><circle cx="184.1" cy="324.72" r="2.2" fill="#5b554a"/><g transform="translate(117.64 278.43) scale(1.05)" color="#7b5ea7" stroke="currentColor" stroke-width="1.6" stroke-linecap="round" fill="none" data-kk="planet:Mercury;sign:Gemini" style="cursor:pointer"><circle cx="10" cy="10" r="13" fill="transparent" stroke="none"/><circle cx="10" cy="8.6" r="3.4"/><path d="M 6.6 2.4 A 3.5 3.5 0 0 0 13.4 2.4"/><line x1="10" y1="12" x2="10" y2="17.4"/><line x1="7.2" y1="14.7" x2="12.8" y2="14.7"/></g><text x="149.69" y="293.32" text-anchor="middle" dominant-baseline="central" font-size="8.5" fill="#8a8377">27° ℞</text><line x1="116.38" y1="286.54" x2="104.15" y2="321.82" stroke="#c9bda0" stroke-width="0.6"/><line x1="90.16" y1="321.31" x2="102.15" y2="321.75" stroke="#5b554a" stroke-width="1.3"/><circle cx="184.1" cy="324.72" r="2.2" fill="#5b554a"/><g transform="translate(114.14 303.34) scale(1.05)" color="#2e8b74" stroke="currentColor" stroke-width="1.6" stroke-linecap="round" fill="none" data-kk="planet:Venus;sign:Gemini" style="cursor:pointer"><circle cx="10" cy="10" r="13" fill="transparent" stroke="none"/><circle cx="10" cy="7.2" r="4.1"/><line x1="10" y1="11.3" x2="10" y2="17.6"/><line x1="6.9" y1="14.4" x2="13.1" y2="14.4"/></g><text x="146.57" y="315.56" text-anchor="middle" dominant-baseline="central" font-size="8.5" fill="#8a8377">27°</text><line x1="112.67" y1="312.9" x2="104.15" y2="321.82" stroke="#c9bda0" stroke-width="0.6"/><line x1="297.84" y1="567.84" x2="299.45" y2="555.94" stroke="#5b554a" stroke-width="1.3"/><circle cx="310.44" cy="474.68" r="2.2" fill="#5b554a"/><g transform="translate(291.9 523.64) scale(1.05)" color="#c0504d" stroke="currentColor" stroke-width="1.6" stroke-linecap="round" fill="none" data-kk="planet:Mars;sign:Virgo" style="cursor:pointer"><circle cx="10" cy="10" r="13" fill="transparent" stroke="none"/><circle cx="8.4" cy="11.6" r="4.3"/><line x1="11.5" y1="8.5" x2="15.9" y2="4.1"/><polyline points="12.3,4.1 15.9,4.1 15.9,7.7" fill="none"/></g><text x="305.35" y="512.34" text-anchor="middle" dominant-baseline="central" font-size="8.5" fill="#8a8377">22°</text><line x1="193.02" y1="527.07" x2="199.87" y2="517.22" stroke="#5b554a" stroke-width="1.3"/><circle cx="246.67" cy="449.89" r="2.2" fill="#5b554a"/><g transform="translate(201.93 488.65) scale(1.05)" color="#5b554a" stroke="currentColor" stroke-width="1.6" stroke-linecap="round" fill="none" data-kk="planet:Jupiter;sign:Leo" style="cursor:pointer"><circle cx="10" cy="10" r="13" fill="transparent" stroke="none"/><path d="M 4.4 6.4 A 3.5 3.5 0 0 1 11.2 5.6 Q 11.2 9.4 5.2 13.1 L 16 13.1" fill="none"/><line x1="12.9" y1="9.4" x2="12.9" y2="17.4"/></g><text x="224.98" y="481.09" text-anchor="middle" dominant-baseline="central" font-size="8.5" fill="#8a8377">25°</text><line x1="222.62" y1="115.36" x2="227.99" y2="126.09" stroke="#5b554a" stroke-width="1.3"/><circle cx="264.68" cy="199.43" r="2.2" fill="#5b554a"/><g transform="translate(230.81 133.57) scale(1.05)" color="#7a2e1d" stroke="currentColor" stroke-width="1.6" stroke-linecap="round" fill="none" data-kk="planet:Saturn;sign:Aries" style="cursor:pointer"><circle cx="10" cy="10" r="13" fill="transparent" stroke="none"/><line x1="7.4" y1="3.2" x2="7.4" y2="11"/><line x1="4.8" y1="5.8" x2="10" y2="5.8"/><path d="M 7.4 11 Q 7.4 8.9 9.9 8.9 Q 12.9 8.9 12.9 12 Q 12.9 14.6 10.5 16 Q 9.9 16.5 10.4 17.5" fill="none"/></g><text x="250.79" y="163.92" text-anchor="middle" dominant-baseline="central" font-size="8.5" fill="#8a8377">26°</text><line x1="107.88" y1="239.09" x2="118.99" y2="243.64" stroke="#5b554a" stroke-width="1.3"/><circle cx="194.88" cy="274.7" r="2.2" fill="#5b554a"/><g transform="translate(124.15 254.14) scale(1.05)" color="#3a6ea5" stroke="currentColor" stroke-width="1.6" stroke-linecap="round" fill="none" data-kk="planet:Uranus;sign:Gemini" style="cursor:pointer"><circle cx="10" cy="10" r="13" fill="transparent" stroke="none"/><line x1="5.7" y1="3.4" x2="5.7" y2="11"/><line x1="14.3" y1="3.4" x2="14.3" y2="11"/><line x1="5.7" y1="7.2" x2="14.3" y2="7.2"/><line x1="10" y1="7.2" x2="10" y2="12.3"/><circle cx="10" cy="14.7" r="2.5"/><circle cx="10" cy="14.7" r="0.9" fill="currentColor" stroke="none"/></g><text x="155.51" y="271.62" text-anchor="middle" dominant-baseline="central" font-size="8.5" fill="#8a8377">7°</text><line x1="123.27" y1="260.83" x2="120.84" y2="244.4" stroke="#c9bda0" stroke-width="0.6"/><line x1="302.25" y1="91.61" x2="303.64" y2="103.53" stroke="#5b554a" stroke-width="1.3"/><circle cx="313.12" cy="184.98" r="2.2" fill="#5b554a"/><g transform="translate(295.68 114.88) scale(1.05)" color="#4a5fa5" stroke="currentColor" stroke-width="1.6" stroke-linecap="round" fill="none" data-kk="planet:Neptune;sign:Aries" style="cursor:pointer"><circle cx="10" cy="10" r="13" fill="transparent" stroke="none"/><path d="M 4.6 3.8 Q 4.6 10.4 10 10.4 Q 15.4 10.4 15.4 3.8" fill="none"/><line x1="10" y1="3.4" x2="10" y2="17.2"/><line x1="6.9" y1="14.2" x2="13.1" y2="14.2"/></g><text x="308.73" y="147.23" text-anchor="middle" dominant-baseline="central" font-size="8.5" fill="#8a8377">6°</text><line x1="522.73" y1="186.98" x2="513.09" y2="194.13" stroke="#5b554a" stroke-width="1.3"/><circle cx="447.24" cy="242.99" r="2.2" fill="#5b554a"/><g transform="translate(484.93 196.74) scale(1.05)" color="#6e3d5e" stroke="currentColor" stroke-width="1.6" stroke-linecap="round" fill="none" data-kk="planet:Pluto;sign:Aquarius" style="cursor:pointer"><circle cx="10" cy="10" r="13" fill="transparent" stroke="none"/><circle cx="10" cy="5.4" r="2.1"/><path d="M 5.8 6 A 4.2 4.2 0 0 0 14.2 6" fill="none"/><line x1="10" y1="10.2" x2="10" y2="17.4"/><line x1="7" y1="14.2" x2="13" y2="14.2"/></g><text x="477.76" y="220.35" text-anchor="middle" dominant-baseline="central" font-size="8.5" fill="#8a8377">6° ℞</text><line x1="195.66" y1="131.12" x2="202.37" y2="141.07" stroke="#5b554a" stroke-width="1.3"/><circle cx="248.27" cy="209.02" r="2.2" fill="#5b554a"/><g transform="translate(202.82 149.73) scale(1.05)" color="#a3622e" stroke="currentColor" stroke-width="1.6" stroke-linecap="round" fill="none"><circle cx="10" cy="14.6" r="3.1"/><line x1="10" y1="2.2" x2="10" y2="11.5"/><line x1="10" y1="7.6" x2="14.4" y2="3.4"/><line x1="10" y1="7.6" x2="14.4" y2="11.4"/></g><text x="225.78" y="178.36" text-anchor="middle" dominant-baseline="central" font-size="8.5" fill="#8a8377">4°</text><line x1="508.69" y1="169.78" x2="499.75" y2="177.79" stroke="#5b554a" stroke-width="1.3"/><circle cx="438.7" cy="232.53" r="2.2" fill="#5b554a"/><g transform="translate(463.69 172.37) scale(1.05)" color="#6b6257" stroke="currentColor" stroke-width="1.6" stroke-linecap="round" fill="none"><circle cx="5.6" cy="15.2" r="1.9"/><circle cx="14.4" cy="15.2" r="1.9"/><path d="M 6.9 13.8 A 6.4 6.4 0 1 1 13.1 13.8" fill="none"/></g><text x="458.79" y="198.58" text-anchor="middle" dominant-baseline="central" font-size="8.5" fill="#8a8377">11° ℞</text><line x1="482.58" y1="174.3" x2="498.26" y2="179.13" stroke="#c9bda0" stroke-width="0.6"/><line x1="151.31" y1="490.22" x2="160.25" y2="482.21" stroke="#5b554a" stroke-width="1.3"/><circle cx="221.3" cy="427.47" r="2.2" fill="#5b554a"/><g transform="translate(166.13 457.02) scale(1.05)" color="#9a917f" stroke="currentColor" stroke-width="1.6" stroke-linecap="round" fill="none"><circle cx="5.6" cy="4.8" r="1.9"/><circle cx="14.4" cy="4.8" r="1.9"/><path d="M 6.9 6.2 A 6.4 6.4 0 1 0 13.1 6.2" fill="none"/></g><text x="193.01" y="452.84" text-anchor="middle" dominant-baseline="central" font-size="8.5" fill="#8a8377">11° ℞</text><line x1="472.12" y1="523.4" x2="465.01" y2="513.73" stroke="#5b554a" stroke-width="1.3"/><circle cx="416.46" cy="447.65" r="2.2" fill="#5b554a"/><g transform="translate(441.48 485.5) scale(1.05)" color="#1d3f8c" stroke="currentColor" stroke-width="1.6" stroke-linecap="round" fill="none"><path d="M 10 2.8 L 8.35 7.73 L 3.34 7.84 L 7.34 10.87 L 5.89 15.66 L 10 12.8 L 14.11 15.66 L 12.66 10.87 L 16.66 7.84 L 11.65 7.73 Z" fill="none" stroke-linejoin="round"/></g><text x="438.96" y="478.27" text-anchor="middle" dominant-baseline="central" font-size="8.5" fill="#8a8377">6°</text><text x="330" y="316" text-anchor="middle" font-size="12" font-weight="bold" fill="#5b554a">MERCURY–VENUS CONJUNCTION · mercury-venus-20270701-x6</text><text x="330" y="333" text-anchor="middle" font-size="9" font-style="italic" fill="#8a8377">01 Jul 2027 · 05:22:06 UTC-04:00 · Washington, D.C.</text><text x="330" y="348" text-anchor="middle" font-size="9" font-style="italic" fill="#8a8377">family non-phaseable-crossing-lane · exact pass · proposal only</text></svg>