<svg class="f250-wheel" viewBox="0 0 660 660" xmlns="http://www.w3.org/2000/svg" style="width:100%;height:auto;display:block" font-family="Iowan Old Style,Palatino,Georgia,serif"><path d="M468 569.02 A276 276 0 0 0 569.02 468 L537.85 450 A240 240 0 0 1 450 537.85 Z" fill="#b3402e" fill-opacity="0.10" stroke="#d9cfb8" stroke-width="1"/><text x="512.43" y="512.43" text-anchor="middle" dominant-baseline="central" font-size="13.5" font-style="italic" fill="#b3402e">Ari</text><path d="M569.02 468 A276 276 0 0 0 606 330 L570 330 A240 240 0 0 1 537.85 450 Z" fill="#4a7d5f" fill-opacity="0.10" stroke="#d9cfb8" stroke-width="1"/><text x="579.21" y="396.78" text-anchor="middle" dominant-baseline="central" font-size="13.5" font-style="italic" fill="#4a7d5f">Tau</text><path d="M606 330 A276 276 0 0 0 569.02 192 L537.85 210 A240 240 0 0 1 570 330 Z" fill="#a8821f" fill-opacity="0.10" stroke="#d9cfb8" stroke-width="1"/><text x="579.21" y="263.22" text-anchor="middle" dominant-baseline="central" font-size="13.5" font-style="italic" fill="#a8821f">Gem</text><path d="M569.02 192 A276 276 0 0 0 468 90.98 L450 122.15 A240 240 0 0 1 537.85 210 Z" fill="#3a6ea5" fill-opacity="0.10" stroke="#d9cfb8" stroke-width="1"/><text x="512.43" y="147.57" text-anchor="middle" dominant-baseline="central" font-size="13.5" font-style="italic" fill="#3a6ea5">Can</text><path d="M468 90.98 A276 276 0 0 0 330 54 L330 90 A240 240 0 0 1 450 122.15 Z" fill="#b3402e" fill-opacity="0.10" stroke="#d9cfb8" stroke-width="1"/><text x="396.78" y="80.79" text-anchor="middle" dominant-baseline="central" font-size="13.5" font-style="italic" fill="#b3402e">Leo</text><path d="M330 54 A276 276 0 0 0 192 90.98 L210 122.15 A240 240 0 0 1 330 90 Z" fill="#4a7d5f" fill-opacity="0.10" stroke="#d9cfb8" stroke-width="1"/><text x="263.22" y="80.79" text-anchor="middle" dominant-baseline="central" font-size="13.5" font-style="italic" fill="#4a7d5f">Vir</text><path d="M192 90.98 A276 276 0 0 0 90.98 192 L122.15 210 A240 240 0 0 1 210 122.15 Z" fill="#a8821f" fill-opacity="0.10" stroke="#d9cfb8" stroke-width="1"/><text x="147.57" y="147.57" text-anchor="middle" dominant-baseline="central" font-size="13.5" font-style="italic" fill="#a8821f">Lib</text><path d="M90.98 192 A276 276 0 0 0 54 330 L90 330 A240 240 0 0 1 122.15 210 Z" fill="#3a6ea5" fill-opacity="0.10" stroke="#d9cfb8" stroke-width="1"/><text x="80.79" y="263.22" text-anchor="middle" dominant-baseline="central" font-size="13.5" font-style="italic" fill="#3a6ea5">Sco</text><path d="M54 330 A276 276 0 0 0 90.98 468 L122.15 450 A240 240 0 0 1 90 330 Z" fill="#b3402e" fill-opacity="0.10" stroke="#d9cfb8" stroke-width="1"/><text x="80.79" y="396.78" text-anchor="middle" dominant-baseline="central" font-size="13.5" font-style="italic" fill="#b3402e">Sag</text><path d="M90.98 468 A276 276 0 0 0 192 569.02 L210 537.85 A240 240 0 0 1 122.15 450 Z" fill="#4a7d5f" fill-opacity="0.10" stroke="#d9cfb8" stroke-width="1"/><text x="147.57" y="512.43" text-anchor="middle" dominant-baseline="central" font-size="13.5" font-style="italic" fill="#4a7d5f">Cap</text><path d="M192 569.02 A276 276 0 0 0 330 606 L330 570 A240 240 0 0 1 210 537.85 Z" fill="#a8821f" fill-opacity="0.10" stroke="#d9cfb8" stroke-width="1"/><text x="263.22" y="579.21" text-anchor="middle" dominant-baseline="central" font-size="13.5" font-style="italic" fill="#a8821f">Aqu</text><path d="M330 606 A276 276 0 0 0 468 569.02 L450 537.85 A240 240 0 0 1 330 570 Z" fill="#3a6ea5" fill-opacity="0.10" stroke="#d9cfb8" stroke-width="1"/><text x="396.78" y="579.21" text-anchor="middle" dominant-baseline="central" font-size="13.5" font-style="italic" fill="#3a6ea5">Pis</text><line x1="450" y1="537.85" x2="446" y2="530.92" stroke="#c9bda0" stroke-width="1.4"/><line x1="484.27" y1="513.85" x2="481.7" y2="510.79" stroke="#c9bda0" stroke-width="0.7"/><line x1="513.85" y1="484.27" x2="510.79" y2="481.7" stroke="#c9bda0" stroke-width="0.7"/><line x1="537.85" y1="450" x2="530.92" y2="446" stroke="#c9bda0" stroke-width="1.4"/><line x1="555.53" y1="412.08" x2="551.77" y2="410.72" stroke="#c9bda0" stroke-width="0.7"/><line x1="566.35" y1="371.68" x2="562.41" y2="370.98" stroke="#c9bda0" stroke-width="0.7"/><line x1="570" y1="330" x2="562" y2="330" stroke="#c9bda0" stroke-width="1.4"/><line x1="566.35" y1="288.32" x2="562.41" y2="289.02" stroke="#c9bda0" stroke-width="0.7"/><line x1="555.53" y1="247.92" x2="551.77" y2="249.28" stroke="#c9bda0" stroke-width="0.7"/><line x1="537.85" y1="210" x2="530.92" y2="214" stroke="#c9bda0" stroke-width="1.4"/><line x1="513.85" y1="175.73" x2="510.79" y2="178.3" stroke="#c9bda0" stroke-width="0.7"/><line x1="484.27" y1="146.15" x2="481.7" y2="149.21" stroke="#c9bda0" stroke-width="0.7"/><line x1="450" y1="122.15" x2="446" y2="129.08" stroke="#c9bda0" stroke-width="1.4"/><line x1="412.08" y1="104.47" x2="410.72" y2="108.23" stroke="#c9bda0" stroke-width="0.7"/><line x1="371.68" y1="93.65" x2="370.98" y2="97.59" stroke="#c9bda0" stroke-width="0.7"/><line x1="330" y1="90" x2="330" y2="98" stroke="#c9bda0" stroke-width="1.4"/><line x1="288.32" y1="93.65" x2="289.02" y2="97.59" stroke="#c9bda0" stroke-width="0.7"/><line x1="247.92" y1="104.47" x2="249.28" y2="108.23" stroke="#c9bda0" stroke-width="0.7"/><line x1="210" y1="122.15" x2="214" y2="129.08" stroke="#c9bda0" stroke-width="1.4"/><line x1="175.73" y1="146.15" x2="178.3" y2="149.21" stroke="#c9bda0" stroke-width="0.7"/><line x1="146.15" y1="175.73" x2="149.21" y2="178.3" stroke="#c9bda0" stroke-width="0.7"/><line x1="122.15" y1="210" x2="129.08" y2="214" stroke="#c9bda0" stroke-width="1.4"/><line x1="104.47" y1="247.92" x2="108.23" y2="249.28" stroke="#c9bda0" stroke-width="0.7"/><line x1="93.65" y1="288.32" x2="97.59" y2="289.02" stroke="#c9bda0" stroke-width="0.7"/><line x1="90" y1="330" x2="98" y2="330" stroke="#c9bda0" stroke-width="1.4"/><line x1="93.65" y1="371.68" x2="97.59" y2="370.98" stroke="#c9bda0" stroke-width="0.7"/><line x1="104.47" y1="412.08" x2="108.23" y2="410.72" stroke="#c9bda0" stroke-width="0.7"/><line x1="122.15" y1="450" x2="129.08" y2="446" stroke="#c9bda0" stroke-width="1.4"/><line x1="146.15" y1="484.27" x2="149.21" y2="481.7" stroke="#c9bda0" stroke-width="0.7"/><line x1="175.73" y1="513.85" x2="178.3" y2="510.79" stroke="#c9bda0" stroke-width="0.7"/><line x1="210" y1="537.85" x2="214" y2="530.92" stroke="#c9bda0" stroke-width="1.4"/><line x1="247.92" y1="555.53" x2="249.28" y2="551.77" stroke="#c9bda0" stroke-width="0.7"/><line x1="288.32" y1="566.35" x2="289.02" y2="562.41" stroke="#c9bda0" stroke-width="0.7"/><line x1="330" y1="570" x2="330" y2="562" stroke="#c9bda0" stroke-width="1.4"/><line x1="371.68" y1="566.35" x2="370.98" y2="562.41" stroke="#c9bda0" stroke-width="0.7"/><line x1="412.08" y1="555.53" x2="410.72" y2="551.77" stroke="#c9bda0" stroke-width="0.7"/><circle cx="330" cy="330" r="240" fill="none" stroke="#d9cfb8" stroke-width="1"/><circle cx="330" cy="330" r="148" fill="none" stroke="#e7dcc2" stroke-width="1"/><g class="f250-hs f250-hs-ws"><line x1="182" y1="330" x2="90" y2="330" stroke="#e7dcc2" stroke-width="0.8"/><text x="175.45" y="371.41" text-anchor="middle" dominant-baseline="central" font-size="9.5" fill="#b5a98c">1</text><line x1="201.83" y1="404" x2="122.15" y2="450" stroke="#e7dcc2" stroke-width="0.8"/><text x="216.86" y="443.14" text-anchor="middle" dominant-baseline="central" font-size="9.5" fill="#b5a98c">2</text><line x1="256" y1="458.17" x2="210" y2="537.85" stroke="#e7dcc2" stroke-width="0.8"/><text x="288.59" y="484.55" text-anchor="middle" dominant-baseline="central" font-size="9.5" fill="#b5a98c">3</text><line x1="330" y1="478" x2="330" y2="570" stroke="#e7dcc2" stroke-width="0.8"/><text x="371.41" y="484.55" text-anchor="middle" dominant-baseline="central" font-size="9.5" fill="#b5a98c">4</text><line x1="404" y1="458.17" x2="450" y2="537.85" stroke="#e7dcc2" stroke-width="0.8"/><text x="443.14" y="443.14" text-anchor="middle" dominant-baseline="central" font-size="9.5" fill="#b5a98c">5</text><line x1="458.17" y1="404" x2="537.85" y2="450" stroke="#e7dcc2" stroke-width="0.8"/><text x="484.55" y="371.41" text-anchor="middle" dominant-baseline="central" font-size="9.5" fill="#b5a98c">6</text><line x1="478" y1="330" x2="570" y2="330" stroke="#e7dcc2" stroke-width="0.8"/><text x="484.55" y="288.59" text-anchor="middle" dominant-baseline="central" font-size="9.5" fill="#b5a98c">7</text><line x1="458.17" y1="256" x2="537.85" y2="210" stroke="#e7dcc2" stroke-width="0.8"/><text x="443.14" y="216.86" text-anchor="middle" dominant-baseline="central" font-size="9.5" fill="#b5a98c">8</text><line x1="404" y1="201.83" x2="450" y2="122.15" stroke="#e7dcc2" stroke-width="0.8"/><text x="371.41" y="175.45" text-anchor="middle" dominant-baseline="central" font-size="9.5" fill="#b5a98c">9</text><line x1="330" y1="182" x2="330" y2="90" stroke="#e7dcc2" stroke-width="0.8"/><text x="288.59" y="175.45" text-anchor="middle" dominant-baseline="central" font-size="9.5" fill="#b5a98c">10</text><line x1="256" y1="201.83" x2="210" y2="122.15" stroke="#e7dcc2" stroke-width="0.8"/><text x="216.86" y="216.86" text-anchor="middle" dominant-baseline="central" font-size="9.5" fill="#b5a98c">11</text><line x1="201.83" y1="256" x2="122.15" y2="210" stroke="#e7dcc2" stroke-width="0.8"/><text x="175.45" y="288.59" text-anchor="middle" dominant-baseline="central" font-size="9.5" fill="#b5a98c">12</text></g><line x1="115.67" y1="437.99" x2="71.02" y2="460.49" stroke="#7a2e1d" stroke-width="1.6"/><text x="60.3" y="465.89" text-anchor="middle" dominant-baseline="central" font-size="11" font-weight="bold" fill="#7a2e1d">AS</text><line x1="436.21" y1="430.18" x2="364.36" y2="188.1" stroke="#3a6ea5" stroke-width="2.4" stroke-opacity="0.9"/><line x1="475.89" y1="324.35" x2="406.69" y2="454.24" stroke="#3a6ea5" stroke-width="1.7" stroke-opacity="0.9"/><line x1="475.89" y1="324.35" x2="265.4" y2="460.93" stroke="#3a6ea5" stroke-width="1" stroke-opacity="0.45"/><line x1="402.65" y1="456.64" x2="406.69" y2="454.24" stroke="#c9a227" stroke-width="1" stroke-opacity="0.45"/><line x1="406.69" y1="454.24" x2="265.4" y2="460.93" stroke="#3a6ea5" stroke-width="1" stroke-opacity="0.45"/><line x1="415.49" y1="448.35" x2="265.4" y2="460.93" stroke="#3a6ea5" stroke-width="1" stroke-opacity="0.45"/><line x1="402.65" y1="456.64" x2="475.87" y2="336.13" stroke="#3a6ea5" stroke-width="1" stroke-opacity="0.45"/><line x1="475.89" y1="324.35" x2="402.65" y2="456.64" stroke="#3a6ea5" stroke-width="1" stroke-opacity="0.45"/><line x1="475.89" y1="324.35" x2="415.49" y2="448.35" stroke="#3a6ea5" stroke-width="1" stroke-opacity="0.45"/><line x1="461.2" y1="265.94" x2="402.65" y2="456.64" stroke="#b3402e" stroke-width="1" stroke-opacity="0.45"/><line x1="475.13" y1="345.9" x2="475.87" y2="336.13" stroke="#c9a227" stroke-width="1" stroke-opacity="0.45"/><line x1="402.65" y1="456.64" x2="265.4" y2="460.93" stroke="#3a6ea5" stroke-width="1" stroke-opacity="0.45"/><line x1="475.87" y1="336.13" x2="406.69" y2="454.24" stroke="#3a6ea5" stroke-width="1" stroke-opacity="0.45"/><line x1="415.49" y1="448.35" x2="406.69" y2="454.24" stroke="#c9a227" stroke-width="1" stroke-opacity="0.45"/><line x1="475.89" y1="324.35" x2="475.87" y2="336.13" stroke="#c9a227" stroke-width="1" stroke-opacity="0.45"/><line x1="461.2" y1="265.94" x2="406.69" y2="454.24" stroke="#b3402e" stroke-width="1" stroke-opacity="0.45"/><line x1="415.49" y1="448.35" x2="402.65" y2="456.64" stroke="#c9a227" stroke-width="1" stroke-opacity="0.45"/><line x1="475.87" y1="336.13" x2="265.4" y2="460.93" stroke="#3a6ea5" stroke-width="1" stroke-opacity="0.45"/><line x1="391.84" y1="462.26" x2="461.2" y2="265.94" stroke="#b3402e" stroke-width="1.7" stroke-opacity="0.9"/><line x1="569.82" y1="320.72" x2="557.83" y2="321.18" stroke="#5b554a" stroke-width="1.3"/><circle cx="475.89" cy="324.35" r="2.2" fill="#5b554a"/><g transform="translate(524.86 303.34) scale(1.05)" color="#b07d2b" stroke="currentColor" stroke-width="1.6" stroke-linecap="round" fill="none" data-kk="planet:Sun;sign:Gemini" style="cursor:pointer"><circle cx="10" cy="10" r="13" fill="transparent" stroke="none"/><circle cx="10" cy="10" r="5.6"/><circle cx="10" cy="10" r="1.5" fill="currentColor" stroke="none"/></g><text x="513.43" y="315.56" text-anchor="middle" dominant-baseline="central" font-size="8.5" fill="#8a8377">2°</text><line x1="547.33" y1="312.9" x2="555.83" y2="321.26" stroke="#c9bda0" stroke-width="0.6"/><line x1="470.53" y1="524.55" x2="463.51" y2="514.83" stroke="#5b554a" stroke-width="1.3"/><circle cx="415.49" cy="448.35" r="2.2" fill="#5b554a"/><g transform="translate(456 473.78) scale(1.05)" color="#8d7960" stroke="currentColor" stroke-width="1.6" stroke-linecap="round" fill="none" data-kk="planet:Moon;sign:Aries" style="cursor:pointer"><circle cx="10" cy="10" r="13" fill="transparent" stroke="none"/><path d="M 11.5 3.9 A 6.3 6.3 0 1 0 11.5 16.1 A 7.1 7.1 0 0 1 11.5 3.9 Z" fill="currentColor" stroke="none"/></g><text x="451.92" y="467.81" text-anchor="middle" dominant-baseline="central" font-size="8.5" fill="#8a8377">5°</text><line x1="474.45" y1="493.27" x2="462.33" y2="513.2" stroke="#c9bda0" stroke-width="0.6"/><line x1="568.57" y1="356.14" x2="556.64" y2="354.83" stroke="#5b554a" stroke-width="1.3"/><circle cx="475.13" cy="345.9" r="2.2" fill="#5b554a"/><g transform="translate(519.81 367.59) scale(1.05)" color="#7b5ea7" stroke="currentColor" stroke-width="1.6" stroke-linecap="round" fill="none" data-kk="planet:Mercury;sign:Taurus" style="cursor:pointer"><circle cx="10" cy="10" r="13" fill="transparent" stroke="none"/><circle cx="10" cy="8.6" r="3.4"/><path d="M 6.6 2.4 A 3.5 3.5 0 0 0 13.4 2.4"/><line x1="10" y1="12" x2="10" y2="17.4"/><line x1="7.2" y1="14.7" x2="12.8" y2="14.7"/></g><text x="508.92" y="372.95" text-anchor="middle" dominant-baseline="central" font-size="8.5" fill="#8a8377">23°</text><line x1="541.98" y1="380.89" x2="554.66" y2="354.61" stroke="#c9bda0" stroke-width="0.6"/><line x1="504.59" y1="494.67" x2="495.86" y2="486.44" stroke="#5b554a" stroke-width="1.3"/><circle cx="436.21" cy="430.18" r="2.2" fill="#5b554a"/><g transform="translate(473.78 456) scale(1.05)" color="#2e8b74" stroke="currentColor" stroke-width="1.6" stroke-linecap="round" fill="none" data-kk="planet:Venus;sign:Aries" style="cursor:pointer"><circle cx="10" cy="10" r="13" fill="transparent" stroke="none"/><circle cx="10" cy="7.2" r="4.1"/><line x1="10" y1="11.3" x2="10" y2="17.6"/><line x1="6.9" y1="14.4" x2="13.1" y2="14.4"/></g><text x="467.81" y="451.92" text-anchor="middle" dominant-baseline="central" font-size="8.5" fill="#8a8377">16°</text><line x1="493.27" y1="474.45" x2="494.41" y2="485.07" stroke="#c9bda0" stroke-width="0.6"/><line x1="386.48" y1="96.74" x2="383.66" y2="108.4" stroke="#5b554a" stroke-width="1.3"/><circle cx="364.36" cy="188.1" r="2.2" fill="#5b554a"/><g transform="translate(367.98 119.29) scale(1.05)" color="#c0504d" stroke="currentColor" stroke-width="1.6" stroke-linecap="round" fill="none" data-kk="planet:Mars;sign:Leo" style="cursor:pointer"><circle cx="10" cy="10" r="13" fill="transparent" stroke="none"/><circle cx="8.4" cy="11.6" r="4.3"/><line x1="11.5" y1="8.5" x2="15.9" y2="4.1"/><polyline points="12.3,4.1 15.9,4.1 15.9,7.7" fill="none"/></g><text x="373.3" y="151.17" text-anchor="middle" dominant-baseline="central" font-size="8.5" fill="#8a8377">16°</text><line x1="545.67" y1="224.7" x2="534.88" y2="229.96" stroke="#5b554a" stroke-width="1.3"/><circle cx="461.2" cy="265.94" r="2.2" fill="#5b554a"/><g transform="translate(505.43 230.81) scale(1.05)" color="#5b554a" stroke="currentColor" stroke-width="1.6" stroke-linecap="round" fill="none" data-kk="planet:Jupiter;sign:Gemini" style="cursor:pointer"><circle cx="10" cy="10" r="13" fill="transparent" stroke="none"/><path d="M 4.4 6.4 A 3.5 3.5 0 0 1 11.2 5.6 Q 11.2 9.4 5.2 13.1 L 16 13.1" fill="none"/><line x1="12.9" y1="9.4" x2="12.9" y2="17.4"/></g><text x="496.08" y="250.79" text-anchor="middle" dominant-baseline="central" font-size="8.5" fill="#8a8377">26°</text><line x1="449.43" y1="538.18" x2="443.46" y2="527.77" stroke="#5b554a" stroke-width="1.3"/><circle cx="402.65" cy="456.64" r="2.2" fill="#5b554a"/><g transform="translate(408.19 505.43) scale(1.05)" color="#7a2e1d" stroke="currentColor" stroke-width="1.6" stroke-linecap="round" fill="none" data-kk="planet:Saturn;sign:Pisces" style="cursor:pointer"><circle cx="10" cy="10" r="13" fill="transparent" stroke="none"/><line x1="7.4" y1="3.2" x2="7.4" y2="11"/><line x1="4.8" y1="5.8" x2="10" y2="5.8"/><path d="M 7.4 11 Q 7.4 8.9 9.9 8.9 Q 12.9 8.9 12.9 12 Q 12.9 14.6 10.5 16 Q 9.9 16.5 10.4 17.5" fill="none"/></g><text x="409.21" y="496.08" text-anchor="middle" dominant-baseline="central" font-size="8.5" fill="#8a8377">29°</text><line x1="423.85" y1="526.76" x2="442.46" y2="526.03" stroke="#c9bda0" stroke-width="0.6"/><line x1="569.79" y1="340.07" x2="557.8" y2="339.57" stroke="#5b554a" stroke-width="1.3"/><circle cx="475.87" cy="336.13" r="2.2" fill="#5b554a"/><g transform="translate(524.86 335.66) scale(1.05)" color="#3a6ea5" stroke="currentColor" stroke-width="1.6" stroke-linecap="round" fill="none" data-kk="planet:Uranus;sign:Taurus" style="cursor:pointer"><circle cx="10" cy="10" r="13" fill="transparent" stroke="none"/><line x1="5.7" y1="3.4" x2="5.7" y2="11"/><line x1="14.3" y1="3.4" x2="14.3" y2="11"/><line x1="5.7" y1="7.2" x2="14.3" y2="7.2"/><line x1="10" y1="7.2" x2="10" y2="12.3"/><circle cx="10" cy="14.7" r="2.5"/><circle cx="10" cy="14.7" r="0.9" fill="currentColor" stroke="none"/></g><text x="513.43" y="344.44" text-anchor="middle" dominant-baseline="central" font-size="8.5" fill="#8a8377">27°</text><line x1="547.33" y1="347.1" x2="555.8" y2="339.48" stroke="#c9bda0" stroke-width="0.6"/><line x1="456.06" y1="534.22" x2="449.76" y2="524.01" stroke="#5b554a" stroke-width="1.3"/><circle cx="406.69" cy="454.24" r="2.2" fill="#5b554a"/><g transform="translate(436.18 489.27) scale(1.05)" color="#4a5fa5" stroke="currentColor" stroke-width="1.6" stroke-linecap="round" fill="none" data-kk="planet:Neptune;sign:Aries" style="cursor:pointer"><circle cx="10" cy="10" r="13" fill="transparent" stroke="none"/><path d="M 4.6 3.8 Q 4.6 10.4 10 10.4 Q 15.4 10.4 15.4 3.8" fill="none"/><line x1="10" y1="3.4" x2="10" y2="17.2"/><line x1="6.9" y1="14.2" x2="13.1" y2="14.2"/></g><text x="434.22" y="481.64" text-anchor="middle" dominant-baseline="central" font-size="8.5" fill="#8a8377">1°</text><line x1="453.48" y1="509.66" x2="448.71" y2="522.31" stroke="#c9bda0" stroke-width="0.6"/><line x1="223.82" y1="545.23" x2="229.13" y2="534.47" stroke="#5b554a" stroke-width="1.3"/><circle cx="265.4" cy="460.93" r="2.2" fill="#5b554a"/><g transform="translate(230.81 505.43) scale(1.05)" color="#6e3d5e" stroke="currentColor" stroke-width="1.6" stroke-linecap="round" fill="none" data-kk="planet:Pluto;sign:Aquarius" style="cursor:pointer"><circle cx="10" cy="10" r="13" fill="transparent" stroke="none"/><circle cx="10" cy="5.4" r="2.1"/><path d="M 5.8 6 A 4.2 4.2 0 0 0 14.2 6" fill="none"/><line x1="10" y1="10.2" x2="10" y2="17.4"/><line x1="7" y1="14.2" x2="13" y2="14.2"/></g><text x="250.79" y="496.08" text-anchor="middle" dominant-baseline="central" font-size="8.5" fill="#8a8377">3° ℞</text><line x1="527.25" y1="466.73" x2="517.38" y2="459.89" stroke="#5b554a" stroke-width="1.3"/><circle cx="449.99" cy="413.17" r="2.2" fill="#5b554a"/><g transform="translate(489.27 436.18) scale(1.05)" color="#a3622e" stroke="currentColor" stroke-width="1.6" stroke-linecap="round" fill="none"><circle cx="10" cy="14.6" r="3.1"/><line x1="10" y1="2.2" x2="10" y2="11.5"/><line x1="10" y1="7.6" x2="14.4" y2="3.4"/><line x1="10" y1="7.6" x2="14.4" y2="11.4"/></g><text x="481.64" y="434.22" text-anchor="middle" dominant-baseline="central" font-size="8.5" fill="#8a8377">25°</text><line x1="431.65" y1="547.41" x2="426.57" y2="536.54" stroke="#5b554a" stroke-width="1.3"/><circle cx="391.84" cy="462.26" r="2.2" fill="#5b554a"/><g transform="translate(378.01 517.02) scale(1.05)" color="#6b6257" stroke="currentColor" stroke-width="1.6" stroke-linecap="round" fill="none"><circle cx="5.6" cy="15.2" r="1.9"/><circle cx="14.4" cy="15.2" r="1.9"/><path d="M 6.9 13.8 A 6.4 6.4 0 1 1 13.1 13.8" fill="none"/></g><text x="382.26" y="506.42" text-anchor="middle" dominant-baseline="central" font-size="8.5" fill="#8a8377">25° ℞</text><line x1="391.92" y1="539.02" x2="425.72" y2="534.73" stroke="#c9bda0" stroke-width="0.6"/><line x1="228.35" y1="112.59" x2="233.43" y2="123.46" stroke="#5b554a" stroke-width="1.3"/><circle cx="268.16" cy="197.74" r="2.2" fill="#5b554a"/><g transform="translate(232.25 132.89) scale(1.05)" color="#9a917f" stroke="currentColor" stroke-width="1.6" stroke-linecap="round" fill="none"><circle cx="5.6" cy="4.8" r="1.9"/><circle cx="14.4" cy="4.8" r="1.9"/><path d="M 6.9 6.2 A 6.4 6.4 0 1 0 13.1 6.2" fill="none"/></g><text x="252.07" y="163.32" text-anchor="middle" dominant-baseline="central" font-size="8.5" fill="#8a8377">25° ℞</text><line x1="567.63" y1="296.33" x2="555.74" y2="298.01" stroke="#5b554a" stroke-width="1.3"/><circle cx="474.56" cy="309.52" r="2.2" fill="#5b554a"/><g transform="translate(519.81 271.41) scale(1.05)" color="#1d3f8c" stroke="currentColor" stroke-width="1.6" stroke-linecap="round" fill="none"><path d="M 10 2.8 L 8.35 7.73 L 3.34 7.84 L 7.34 10.87 L 5.89 15.66 L 10 12.8 L 14.11 15.66 L 12.66 10.87 L 16.66 7.84 L 11.65 7.73 Z" fill="none" stroke-linejoin="round"/></g><text x="508.92" y="287.05" text-anchor="middle" dominant-baseline="central" font-size="8.5" fill="#8a8377">8°</text><line x1="541.98" y1="279.11" x2="553.76" y2="298.29" stroke="#c9bda0" stroke-width="0.6"/><text x="330" y="316" text-anchor="middle" font-size="12" font-weight="bold" fill="#5b554a">MERCURY–JUPITER CONJUNCTION PERSONA</text><text x="330" y="333" text-anchor="middle" font-size="9" font-style="italic" fill="#8a8377">22 May 2025 · 22:11:53 UTC-04:00 · Washington, D.C.</text><text x="330" y="348" text-anchor="middle" font-size="9" font-style="italic" fill="#8a8377">family mercury-jupiter-2024 · conditional subsidiary · zero vote</text></svg>