<svg class="f250-wheel" viewBox="0 0 660 660" xmlns="http://www.w3.org/2000/svg" style="width:100%;height:auto;display:block" font-family="Iowan Old Style,Palatino,Georgia,serif"><path d="M468 90.98 A276 276 0 0 0 330 54 L330 90 A240 240 0 0 1 450 122.15 Z" fill="#b3402e" fill-opacity="0.10" stroke="#d9cfb8" stroke-width="1"/><text x="396.78" y="80.79" text-anchor="middle" dominant-baseline="central" font-size="13.5" font-style="italic" fill="#b3402e">Ari</text><path d="M330 54 A276 276 0 0 0 192 90.98 L210 122.15 A240 240 0 0 1 330 90 Z" fill="#4a7d5f" fill-opacity="0.10" stroke="#d9cfb8" stroke-width="1"/><text x="263.22" y="80.79" text-anchor="middle" dominant-baseline="central" font-size="13.5" font-style="italic" fill="#4a7d5f">Tau</text><path d="M192 90.98 A276 276 0 0 0 90.98 192 L122.15 210 A240 240 0 0 1 210 122.15 Z" fill="#a8821f" fill-opacity="0.10" stroke="#d9cfb8" stroke-width="1"/><text x="147.57" y="147.57" text-anchor="middle" dominant-baseline="central" font-size="13.5" font-style="italic" fill="#a8821f">Gem</text><path d="M90.98 192 A276 276 0 0 0 54 330 L90 330 A240 240 0 0 1 122.15 210 Z" fill="#3a6ea5" fill-opacity="0.10" stroke="#d9cfb8" stroke-width="1"/><text x="80.79" y="263.22" text-anchor="middle" dominant-baseline="central" font-size="13.5" font-style="italic" fill="#3a6ea5">Can</text><path d="M54 330 A276 276 0 0 0 90.98 468 L122.15 450 A240 240 0 0 1 90 330 Z" fill="#b3402e" fill-opacity="0.10" stroke="#d9cfb8" stroke-width="1"/><text x="80.79" y="396.78" text-anchor="middle" dominant-baseline="central" font-size="13.5" font-style="italic" fill="#b3402e">Leo</text><path d="M90.98 468 A276 276 0 0 0 192 569.02 L210 537.85 A240 240 0 0 1 122.15 450 Z" fill="#4a7d5f" fill-opacity="0.10" stroke="#d9cfb8" stroke-width="1"/><text x="147.57" y="512.43" text-anchor="middle" dominant-baseline="central" font-size="13.5" font-style="italic" fill="#4a7d5f">Vir</text><path d="M192 569.02 A276 276 0 0 0 330 606 L330 570 A240 240 0 0 1 210 537.85 Z" fill="#a8821f" fill-opacity="0.10" stroke="#d9cfb8" stroke-width="1"/><text x="263.22" y="579.21" text-anchor="middle" dominant-baseline="central" font-size="13.5" font-style="italic" fill="#a8821f">Lib</text><path d="M330 606 A276 276 0 0 0 468 569.02 L450 537.85 A240 240 0 0 1 330 570 Z" fill="#3a6ea5" fill-opacity="0.10" stroke="#d9cfb8" stroke-width="1"/><text x="396.78" y="579.21" text-anchor="middle" dominant-baseline="central" font-size="13.5" font-style="italic" fill="#3a6ea5">Sco</text><path d="M468 569.02 A276 276 0 0 0 569.02 468 L537.85 450 A240 240 0 0 1 450 537.85 Z" fill="#b3402e" fill-opacity="0.10" stroke="#d9cfb8" stroke-width="1"/><text x="512.43" y="512.43" text-anchor="middle" dominant-baseline="central" font-size="13.5" font-style="italic" fill="#b3402e">Sag</text><path d="M569.02 468 A276 276 0 0 0 606 330 L570 330 A240 240 0 0 1 537.85 450 Z" fill="#4a7d5f" fill-opacity="0.10" stroke="#d9cfb8" stroke-width="1"/><text x="579.21" y="396.78" text-anchor="middle" dominant-baseline="central" font-size="13.5" font-style="italic" fill="#4a7d5f">Cap</text><path d="M606 330 A276 276 0 0 0 569.02 192 L537.85 210 A240 240 0 0 1 570 330 Z" fill="#a8821f" fill-opacity="0.10" stroke="#d9cfb8" stroke-width="1"/><text x="579.21" y="263.22" text-anchor="middle" dominant-baseline="central" font-size="13.5" font-style="italic" fill="#a8821f">Aqu</text><path d="M569.02 192 A276 276 0 0 0 468 90.98 L450 122.15 A240 240 0 0 1 537.85 210 Z" fill="#3a6ea5" fill-opacity="0.10" stroke="#d9cfb8" stroke-width="1"/><text x="512.43" y="147.57" text-anchor="middle" dominant-baseline="central" font-size="13.5" font-style="italic" fill="#3a6ea5">Pis</text><line x1="450" y1="122.15" x2="446" y2="129.08" stroke="#c9bda0" stroke-width="1.4"/><line x1="412.08" y1="104.47" x2="410.72" y2="108.23" stroke="#c9bda0" stroke-width="0.7"/><line x1="371.68" y1="93.65" x2="370.98" y2="97.59" stroke="#c9bda0" stroke-width="0.7"/><line x1="330" y1="90" x2="330" y2="98" stroke="#c9bda0" stroke-width="1.4"/><line x1="288.32" y1="93.65" x2="289.02" y2="97.59" stroke="#c9bda0" stroke-width="0.7"/><line x1="247.92" y1="104.47" x2="249.28" y2="108.23" stroke="#c9bda0" stroke-width="0.7"/><line x1="210" y1="122.15" x2="214" y2="129.08" stroke="#c9bda0" stroke-width="1.4"/><line x1="175.73" y1="146.15" x2="178.3" y2="149.21" stroke="#c9bda0" stroke-width="0.7"/><line x1="146.15" y1="175.73" x2="149.21" y2="178.3" stroke="#c9bda0" stroke-width="0.7"/><line x1="122.15" y1="210" x2="129.08" y2="214" stroke="#c9bda0" stroke-width="1.4"/><line x1="104.47" y1="247.92" x2="108.23" y2="249.28" stroke="#c9bda0" stroke-width="0.7"/><line x1="93.65" y1="288.32" x2="97.59" y2="289.02" stroke="#c9bda0" stroke-width="0.7"/><line x1="90" y1="330" x2="98" y2="330" stroke="#c9bda0" stroke-width="1.4"/><line x1="93.65" y1="371.68" x2="97.59" y2="370.98" stroke="#c9bda0" stroke-width="0.7"/><line x1="104.47" y1="412.08" x2="108.23" y2="410.72" stroke="#c9bda0" stroke-width="0.7"/><line x1="122.15" y1="450" x2="129.08" y2="446" stroke="#c9bda0" stroke-width="1.4"/><line x1="146.15" y1="484.27" x2="149.21" y2="481.7" stroke="#c9bda0" stroke-width="0.7"/><line x1="175.73" y1="513.85" x2="178.3" y2="510.79" stroke="#c9bda0" stroke-width="0.7"/><line x1="210" y1="537.85" x2="214" y2="530.92" stroke="#c9bda0" stroke-width="1.4"/><line x1="247.92" y1="555.53" x2="249.28" y2="551.77" stroke="#c9bda0" stroke-width="0.7"/><line x1="288.32" y1="566.35" x2="289.02" y2="562.41" stroke="#c9bda0" stroke-width="0.7"/><line x1="330" y1="570" x2="330" y2="562" stroke="#c9bda0" stroke-width="1.4"/><line x1="371.68" y1="566.35" x2="370.98" y2="562.41" stroke="#c9bda0" stroke-width="0.7"/><line x1="412.08" y1="555.53" x2="410.72" y2="551.77" stroke="#c9bda0" stroke-width="0.7"/><line x1="450" y1="537.85" x2="446" y2="530.92" stroke="#c9bda0" stroke-width="1.4"/><line x1="484.27" y1="513.85" x2="481.7" y2="510.79" stroke="#c9bda0" stroke-width="0.7"/><line x1="513.85" y1="484.27" x2="510.79" y2="481.7" stroke="#c9bda0" stroke-width="0.7"/><line x1="537.85" y1="450" x2="530.92" y2="446" stroke="#c9bda0" stroke-width="1.4"/><line x1="555.53" y1="412.08" x2="551.77" y2="410.72" stroke="#c9bda0" stroke-width="0.7"/><line x1="566.35" y1="371.68" x2="562.41" y2="370.98" stroke="#c9bda0" stroke-width="0.7"/><line x1="570" y1="330" x2="562" y2="330" stroke="#c9bda0" stroke-width="1.4"/><line x1="566.35" y1="288.32" x2="562.41" y2="289.02" stroke="#c9bda0" stroke-width="0.7"/><line x1="555.53" y1="247.92" x2="551.77" y2="249.28" stroke="#c9bda0" stroke-width="0.7"/><line x1="537.85" y1="210" x2="530.92" y2="214" stroke="#c9bda0" stroke-width="1.4"/><line x1="513.85" y1="175.73" x2="510.79" y2="178.3" stroke="#c9bda0" stroke-width="0.7"/><line x1="484.27" y1="146.15" x2="481.7" y2="149.21" stroke="#c9bda0" stroke-width="0.7"/><circle cx="330" cy="330" r="240" fill="none" stroke="#d9cfb8" stroke-width="1"/><circle cx="330" cy="330" r="148" fill="none" stroke="#e7dcc2" stroke-width="1"/><g class="f250-hs f250-hs-ws"><line x1="182" y1="330" x2="90" y2="330" stroke="#e7dcc2" stroke-width="0.8"/><text x="175.45" y="371.41" text-anchor="middle" dominant-baseline="central" font-size="9.5" fill="#b5a98c">1</text><line x1="201.83" y1="404" x2="122.15" y2="450" stroke="#e7dcc2" stroke-width="0.8"/><text x="216.86" y="443.14" text-anchor="middle" dominant-baseline="central" font-size="9.5" fill="#b5a98c">2</text><line x1="256" y1="458.17" x2="210" y2="537.85" stroke="#e7dcc2" stroke-width="0.8"/><text x="288.59" y="484.55" text-anchor="middle" dominant-baseline="central" font-size="9.5" fill="#b5a98c">3</text><line x1="330" y1="478" x2="330" y2="570" stroke="#e7dcc2" stroke-width="0.8"/><text x="371.41" y="484.55" text-anchor="middle" dominant-baseline="central" font-size="9.5" fill="#b5a98c">4</text><line x1="404" y1="458.17" x2="450" y2="537.85" stroke="#e7dcc2" stroke-width="0.8"/><text x="443.14" y="443.14" text-anchor="middle" dominant-baseline="central" font-size="9.5" fill="#b5a98c">5</text><line x1="458.17" y1="404" x2="537.85" y2="450" stroke="#e7dcc2" stroke-width="0.8"/><text x="484.55" y="371.41" text-anchor="middle" dominant-baseline="central" font-size="9.5" fill="#b5a98c">6</text><line x1="478" y1="330" x2="570" y2="330" stroke="#e7dcc2" stroke-width="0.8"/><text x="484.55" y="288.59" text-anchor="middle" dominant-baseline="central" font-size="9.5" fill="#b5a98c">7</text><line x1="458.17" y1="256" x2="537.85" y2="210" stroke="#e7dcc2" stroke-width="0.8"/><text x="443.14" y="216.86" text-anchor="middle" dominant-baseline="central" font-size="9.5" fill="#b5a98c">8</text><line x1="404" y1="201.83" x2="450" y2="122.15" stroke="#e7dcc2" stroke-width="0.8"/><text x="371.41" y="175.45" text-anchor="middle" dominant-baseline="central" font-size="9.5" fill="#b5a98c">9</text><line x1="330" y1="182" x2="330" y2="90" stroke="#e7dcc2" stroke-width="0.8"/><text x="288.59" y="175.45" text-anchor="middle" dominant-baseline="central" font-size="9.5" fill="#b5a98c">10</text><line x1="256" y1="201.83" x2="210" y2="122.15" stroke="#e7dcc2" stroke-width="0.8"/><text x="216.86" y="216.86" text-anchor="middle" dominant-baseline="central" font-size="9.5" fill="#b5a98c">11</text><line x1="201.83" y1="256" x2="122.15" y2="210" stroke="#e7dcc2" stroke-width="0.8"/><text x="175.45" y="288.59" text-anchor="middle" dominant-baseline="central" font-size="9.5" fill="#b5a98c">12</text></g><line x1="101.21" y1="402.49" x2="53.55" y2="417.59" stroke="#7a2e1d" stroke-width="1.6"/><text x="42.11" y="421.22" text-anchor="middle" dominant-baseline="central" font-size="11" font-weight="bold" fill="#7a2e1d">AS</text><line x1="257.28" y1="203.4" x2="257.28" y2="203.4" stroke="#c9a227" stroke-width="2.4" stroke-opacity="0.9"/><line x1="398.83" y1="201.24" x2="398.15" y2="200.88" stroke="#c9a227" stroke-width="1.7" stroke-opacity="0.9"/><line x1="398.15" y1="200.88" x2="475.79" y2="322.19" stroke="#3a6ea5" stroke-width="1.7" stroke-opacity="0.9"/><line x1="398.83" y1="201.24" x2="475.79" y2="322.19" stroke="#3a6ea5" stroke-width="1" stroke-opacity="0.45"/><line x1="334.02" y1="475.94" x2="475.79" y2="322.19" stroke="#b3402e" stroke-width="1" stroke-opacity="0.45"/><line x1="257.28" y1="203.4" x2="398.83" y2="201.24" stroke="#3a6ea5" stroke-width="1" stroke-opacity="0.45"/><line x1="398.83" y1="201.24" x2="257.28" y2="203.4" stroke="#3a6ea5" stroke-width="1" stroke-opacity="0.45"/><line x1="257.28" y1="203.4" x2="398.15" y2="200.88" stroke="#3a6ea5" stroke-width="1" stroke-opacity="0.45"/><line x1="257.28" y1="203.4" x2="398.15" y2="200.88" stroke="#3a6ea5" stroke-width="1" stroke-opacity="0.45"/><line x1="190.53" y1="286.83" x2="217.86" y2="423.5" stroke="#3a6ea5" stroke-width="1" stroke-opacity="0.45"/><line x1="257.28" y1="203.4" x2="475.79" y2="322.19" stroke="#3a6ea5" stroke-width="1" stroke-opacity="0.45"/><line x1="257.28" y1="203.4" x2="475.79" y2="322.19" stroke="#3a6ea5" stroke-width="1" stroke-opacity="0.45"/><line x1="197.02" y1="269.73" x2="398.15" y2="200.88" stroke="#b3402e" stroke-width="1" stroke-opacity="0.45"/><line x1="197.02" y1="269.73" x2="398.83" y2="201.24" stroke="#b3402e" stroke-width="1" stroke-opacity="0.45"/><line x1="334.02" y1="475.94" x2="197.02" y2="269.73" stroke="#3a6ea5" stroke-width="1" stroke-opacity="0.45"/><line x1="217.86" y1="423.5" x2="197.02" y2="269.73" stroke="#3a6ea5" stroke-width="1" stroke-opacity="0.45"/><line x1="185.69" y1="352.17" x2="475.79" y2="322.19" stroke="#b3402e" stroke-width="1" stroke-opacity="0.45"/><line x1="185.69" y1="352.17" x2="398.15" y2="200.88" stroke="#3a6ea5" stroke-width="1" stroke-opacity="0.45"/><line x1="185.69" y1="352.17" x2="398.83" y2="201.24" stroke="#3a6ea5" stroke-width="1" stroke-opacity="0.45"/><line x1="190.53" y1="286.83" x2="197.02" y2="269.73" stroke="#c9a227" stroke-width="1" stroke-opacity="0.45"/><line x1="201.4" y1="260.87" x2="398.83" y2="201.24" stroke="#b3402e" stroke-width="2.4" stroke-opacity="0.9"/><line x1="201.4" y1="260.87" x2="398.15" y2="200.88" stroke="#b3402e" stroke-width="1.7" stroke-opacity="0.9"/><line x1="100.73" y1="259.04" x2="112.19" y2="262.59" stroke="#5b554a" stroke-width="1.3"/><circle cx="190.53" cy="286.83" r="2.2" fill="#5b554a"/><g transform="translate(115.26 292.61) scale(1.05)" color="#b07d2b" stroke="currentColor" stroke-width="1.6" stroke-linecap="round" fill="none" data-kk="planet:Sun;sign:Cancer" style="cursor:pointer"><circle cx="10" cy="10" r="13" fill="transparent" stroke="none"/><circle cx="10" cy="10" r="5.6"/><circle cx="10" cy="10" r="1.5" fill="currentColor" stroke="none"/></g><text x="147.57" y="305.98" text-anchor="middle" dominant-baseline="central" font-size="8.5" fill="#8a8377">12°</text><line x1="113.87" y1="301.55" x2="114.1" y2="263.18" stroke="#c9bda0" stroke-width="0.6"/><line x1="336.61" y1="569.91" x2="336.28" y2="557.91" stroke="#5b554a" stroke-width="1.3"/><circle cx="334.02" cy="475.94" r="2.2" fill="#5b554a"/><g transform="translate(335.66 524.86) scale(1.05)" color="#8d7960" stroke="currentColor" stroke-width="1.6" stroke-linecap="round" fill="none" data-kk="planet:Moon;sign:Scorpio" style="cursor:pointer"><circle cx="10" cy="10" r="13" fill="transparent" stroke="none"/><path d="M 11.5 3.9 A 6.3 6.3 0 1 0 11.5 16.1 A 7.1 7.1 0 0 1 11.5 3.9 Z" fill="currentColor" stroke="none"/></g><text x="344.44" y="513.43" text-anchor="middle" dominant-baseline="central" font-size="8.5" fill="#8a8377">1°</text><line x1="347.1" y1="547.33" x2="336.23" y2="555.91" stroke="#c9bda0" stroke-width="0.6"/><line x1="92.78" y1="366.44" x2="104.64" y2="364.62" stroke="#5b554a" stroke-width="1.3"/><circle cx="185.69" cy="352.17" r="2.2" fill="#5b554a"/><g transform="translate(115.89 350.78) scale(1.05)" color="#7b5ea7" stroke="currentColor" stroke-width="1.6" stroke-linecap="round" fill="none" data-kk="planet:Mercury;sign:Leo" style="cursor:pointer"><circle cx="10" cy="10" r="13" fill="transparent" stroke="none"/><circle cx="10" cy="8.6" r="3.4"/><path d="M 6.6 2.4 A 3.5 3.5 0 0 0 13.4 2.4"/><line x1="10" y1="12" x2="10" y2="17.4"/><line x1="7.2" y1="14.7" x2="12.8" y2="14.7"/></g><text x="148.13" y="357.94" text-anchor="middle" dominant-baseline="central" font-size="8.5" fill="#8a8377">8°</text><line x1="210.46" y1="121.89" x2="216.44" y2="132.29" stroke="#5b554a" stroke-width="1.3"/><circle cx="257.28" cy="203.4" r="2.2" fill="#5b554a"/><g transform="translate(260.99 121.98) scale(1.05)" color="#2e8b74" stroke="currentColor" stroke-width="1.6" stroke-linecap="round" fill="none" data-kk="planet:Venus;sign:Taurus" style="cursor:pointer"><circle cx="10" cy="10" r="13" fill="transparent" stroke="none"/><circle cx="10" cy="7.2" r="4.1"/><line x1="10" y1="11.3" x2="10" y2="17.6"/><line x1="6.9" y1="14.4" x2="13.1" y2="14.4"/></g><text x="277.74" y="153.58" text-anchor="middle" dominant-baseline="central" font-size="8.5" fill="#8a8377">29°</text><line x1="268.08" y1="120.98" x2="217.43" y2="134.03" stroke="#c9bda0" stroke-width="0.6"/><line x1="145.67" y1="483.69" x2="154.88" y2="476.01" stroke="#5b554a" stroke-width="1.3"/><circle cx="217.86" cy="423.5" r="2.2" fill="#5b554a"/><g transform="translate(161.28 451.42) scale(1.05)" color="#c0504d" stroke="currentColor" stroke-width="1.6" stroke-linecap="round" fill="none" data-kk="planet:Mars;sign:Virgo" style="cursor:pointer"><circle cx="10" cy="10" r="13" fill="transparent" stroke="none"/><circle cx="8.4" cy="11.6" r="4.3"/><line x1="11.5" y1="8.5" x2="15.9" y2="4.1"/><polyline points="12.3,4.1 15.9,4.1 15.9,7.7" fill="none"/></g><text x="188.68" y="447.83" text-anchor="middle" dominant-baseline="central" font-size="8.5" fill="#8a8377">9°</text><line x1="111.4" y1="230.93" x2="122.33" y2="235.88" stroke="#5b554a" stroke-width="1.3"/><circle cx="197.02" cy="269.73" r="2.2" fill="#5b554a"/><g transform="translate(121.98 260.99) scale(1.05)" color="#5b554a" stroke="currentColor" stroke-width="1.6" stroke-linecap="round" fill="none" data-kk="planet:Jupiter;sign:Cancer" style="cursor:pointer"><circle cx="10" cy="10" r="13" fill="transparent" stroke="none"/><path d="M 4.4 6.4 A 3.5 3.5 0 0 1 11.2 5.6 Q 11.2 9.4 5.2 13.1 L 16 13.1" fill="none"/><line x1="12.9" y1="9.4" x2="12.9" y2="17.4"/></g><text x="153.58" y="277.74" text-anchor="middle" dominant-baseline="central" font-size="8.5" fill="#8a8377">5°</text><line x1="120.98" y1="268.08" x2="124.15" y2="236.71" stroke="#c9bda0" stroke-width="0.6"/><line x1="443.15" y1="118.35" x2="437.49" y2="128.93" stroke="#5b554a" stroke-width="1.3"/><circle cx="398.83" cy="201.24" r="2.2" fill="#5b554a"/><g transform="translate(408.19 133.57) scale(1.05)" color="#7a2e1d" stroke="currentColor" stroke-width="1.6" stroke-linecap="round" fill="none" data-kk="planet:Saturn;sign:Aries" style="cursor:pointer"><circle cx="10" cy="10" r="13" fill="transparent" stroke="none"/><line x1="7.4" y1="3.2" x2="7.4" y2="11"/><line x1="4.8" y1="5.8" x2="10" y2="5.8"/><path d="M 7.4 11 Q 7.4 8.9 9.9 8.9 Q 12.9 8.9 12.9 12 Q 12.9 14.6 10.5 16 Q 9.9 16.5 10.4 17.5" fill="none"/></g><text x="409.21" y="163.92" text-anchor="middle" dominant-baseline="central" font-size="8.5" fill="#8a8377">1°</text><line x1="423.85" y1="133.24" x2="436.55" y2="130.69" stroke="#c9bda0" stroke-width="0.6"/><line x1="210.46" y1="121.89" x2="216.44" y2="132.29" stroke="#5b554a" stroke-width="1.3"/><circle cx="257.28" cy="203.4" r="2.2" fill="#5b554a"/><g transform="translate(230.81 133.57) scale(1.05)" color="#3a6ea5" stroke="currentColor" stroke-width="1.6" stroke-linecap="round" fill="none" data-kk="planet:Uranus;sign:Taurus" style="cursor:pointer"><circle cx="10" cy="10" r="13" fill="transparent" stroke="none"/><line x1="5.7" y1="3.4" x2="5.7" y2="11"/><line x1="14.3" y1="3.4" x2="14.3" y2="11"/><line x1="5.7" y1="7.2" x2="14.3" y2="7.2"/><line x1="10" y1="7.2" x2="10" y2="12.3"/><circle cx="10" cy="14.7" r="2.5"/><circle cx="10" cy="14.7" r="0.9" fill="currentColor" stroke="none"/></g><text x="250.79" y="163.92" text-anchor="middle" dominant-baseline="central" font-size="8.5" fill="#8a8377">29°</text><line x1="236.15" y1="133.24" x2="217.43" y2="134.03" stroke="#c9bda0" stroke-width="0.6"/><line x1="442.02" y1="117.75" x2="436.42" y2="128.36" stroke="#5b554a" stroke-width="1.3"/><circle cx="398.15" cy="200.88" r="2.2" fill="#5b554a"/><g transform="translate(378.01 121.98) scale(1.05)" color="#4a5fa5" stroke="currentColor" stroke-width="1.6" stroke-linecap="round" fill="none" data-kk="planet:Neptune;sign:Aries" style="cursor:pointer"><circle cx="10" cy="10" r="13" fill="transparent" stroke="none"/><path d="M 4.6 3.8 Q 4.6 10.4 10 10.4 Q 15.4 10.4 15.4 3.8" fill="none"/><line x1="10" y1="3.4" x2="10" y2="17.2"/><line x1="6.9" y1="14.2" x2="13.1" y2="14.2"/></g><text x="382.26" y="153.58" text-anchor="middle" dominant-baseline="central" font-size="8.5" fill="#8a8377">2°</text><line x1="391.92" y1="120.98" x2="435.49" y2="130.13" stroke="#c9bda0" stroke-width="0.6"/><line x1="569.66" y1="317.17" x2="557.67" y2="317.81" stroke="#5b554a" stroke-width="1.3"/><circle cx="475.79" cy="322.19" r="2.2" fill="#5b554a"/><g transform="translate(524.86 303.34) scale(1.05)" color="#6e3d5e" stroke="currentColor" stroke-width="1.6" stroke-linecap="round" fill="none" data-kk="planet:Pluto;sign:Aquarius" style="cursor:pointer"><circle cx="10" cy="10" r="13" fill="transparent" stroke="none"/><circle cx="10" cy="5.4" r="2.1"/><path d="M 5.8 6 A 4.2 4.2 0 0 0 14.2 6" fill="none"/><line x1="10" y1="10.2" x2="10" y2="17.4"/><line x1="7" y1="14.2" x2="13" y2="14.2"/></g><text x="513.43" y="315.56" text-anchor="middle" dominant-baseline="central" font-size="8.5" fill="#8a8377">3° ℞</text><line x1="343.13" y1="90.36" x2="342.47" y2="102.34" stroke="#5b554a" stroke-width="1.3"/><circle cx="337.99" cy="184.22" r="2.2" fill="#5b554a"/><g transform="translate(335.66 114.14) scale(1.05)" color="#a3622e" stroke="currentColor" stroke-width="1.6" stroke-linecap="round" fill="none"><circle cx="10" cy="14.6" r="3.1"/><line x1="10" y1="2.2" x2="10" y2="11.5"/><line x1="10" y1="7.6" x2="14.4" y2="3.4"/><line x1="10" y1="7.6" x2="14.4" y2="11.4"/></g><text x="344.44" y="146.57" text-anchor="middle" dominant-baseline="central" font-size="8.5" fill="#8a8377">26°</text><line x1="480.95" y1="143.41" x2="473.4" y2="152.74" stroke="#5b554a" stroke-width="1.3"/><circle cx="421.82" cy="216.49" r="2.2" fill="#5b554a"/><g transform="translate(449.06 159.34) scale(1.05)" color="#6b6257" stroke="currentColor" stroke-width="1.6" stroke-linecap="round" fill="none"><circle cx="5.6" cy="15.2" r="1.9"/><circle cx="14.4" cy="15.2" r="1.9"/><path d="M 6.9 13.8 A 6.4 6.4 0 1 1 13.1 13.8" fill="none"/></g><text x="445.72" y="186.95" text-anchor="middle" dominant-baseline="central" font-size="8.5" fill="#8a8377">21° ℞</text><line x1="179.05" y1="516.59" x2="186.6" y2="507.26" stroke="#5b554a" stroke-width="1.3"/><circle cx="238.18" cy="443.51" r="2.2" fill="#5b554a"/><g transform="translate(189.94 479.66) scale(1.05)" color="#9a917f" stroke="currentColor" stroke-width="1.6" stroke-linecap="round" fill="none"><circle cx="5.6" cy="4.8" r="1.9"/><circle cx="14.4" cy="4.8" r="1.9"/><path d="M 6.9 6.2 A 6.4 6.4 0 1 0 13.1 6.2" fill="none"/></g><text x="214.28" y="473.05" text-anchor="middle" dominant-baseline="central" font-size="8.5" fill="#8a8377">21° ℞</text><line x1="118.61" y1="216.36" x2="129.18" y2="222.04" stroke="#5b554a" stroke-width="1.3"/><circle cx="201.4" cy="260.87" r="2.2" fill="#5b554a"/><g transform="translate(133.57 230.81) scale(1.05)" color="#1d3f8c" stroke="currentColor" stroke-width="1.6" stroke-linecap="round" fill="none"><path d="M 10 2.8 L 8.35 7.73 L 3.34 7.84 L 7.34 10.87 L 5.89 15.66 L 10 12.8 L 14.11 15.66 L 12.66 10.87 L 16.66 7.84 L 11.65 7.73 Z" fill="none" stroke-linejoin="round"/></g><text x="163.92" y="250.79" text-anchor="middle" dominant-baseline="central" font-size="8.5" fill="#8a8377">1°</text><line x1="133.24" y1="236.15" x2="130.94" y2="222.99" stroke="#c9bda0" stroke-width="0.6"/><text x="330" y="316" text-anchor="middle" font-size="12" font-weight="bold" fill="#5b554a">VENUS–URANUS CONJUNCTION · venus-uranus-20250704-p1</text><text x="330" y="333" text-anchor="middle" font-size="9" font-style="italic" fill="#8a8377">04 Jul 2025 · 08:45:09 UTC-04:00 · Washington, D.C.</text><text x="330" y="348" text-anchor="middle" font-size="9" font-style="italic" fill="#8a8377">family venus-uranus-2025 · exact pass · proposal only</text></svg>