<svg class="f250-wheel" viewBox="0 0 660 660" xmlns="http://www.w3.org/2000/svg" style="width:100%;height:auto;display:block" font-family="Iowan Old Style,Palatino,Georgia,serif"><path d="M330 606 A276 276 0 0 0 468 569.02 L450 537.85 A240 240 0 0 1 330 570 Z" fill="#b3402e" fill-opacity="0.10" stroke="#d9cfb8" stroke-width="1"/><text x="396.78" y="579.21" text-anchor="middle" dominant-baseline="central" font-size="13.5" font-style="italic" fill="#b3402e">Ari</text><path d="M468 569.02 A276 276 0 0 0 569.02 468 L537.85 450 A240 240 0 0 1 450 537.85 Z" fill="#4a7d5f" fill-opacity="0.10" stroke="#d9cfb8" stroke-width="1"/><text x="512.43" y="512.43" text-anchor="middle" dominant-baseline="central" font-size="13.5" font-style="italic" fill="#4a7d5f">Tau</text><path d="M569.02 468 A276 276 0 0 0 606 330 L570 330 A240 240 0 0 1 537.85 450 Z" fill="#a8821f" fill-opacity="0.10" stroke="#d9cfb8" stroke-width="1"/><text x="579.21" y="396.78" text-anchor="middle" dominant-baseline="central" font-size="13.5" font-style="italic" fill="#a8821f">Gem</text><path d="M606 330 A276 276 0 0 0 569.02 192 L537.85 210 A240 240 0 0 1 570 330 Z" fill="#3a6ea5" fill-opacity="0.10" stroke="#d9cfb8" stroke-width="1"/><text x="579.21" y="263.22" text-anchor="middle" dominant-baseline="central" font-size="13.5" font-style="italic" fill="#3a6ea5">Can</text><path d="M569.02 192 A276 276 0 0 0 468 90.98 L450 122.15 A240 240 0 0 1 537.85 210 Z" fill="#b3402e" fill-opacity="0.10" stroke="#d9cfb8" stroke-width="1"/><text x="512.43" y="147.57" text-anchor="middle" dominant-baseline="central" font-size="13.5" font-style="italic" fill="#b3402e">Leo</text><path d="M468 90.98 A276 276 0 0 0 330 54 L330 90 A240 240 0 0 1 450 122.15 Z" fill="#4a7d5f" fill-opacity="0.10" stroke="#d9cfb8" stroke-width="1"/><text x="396.78" y="80.79" text-anchor="middle" dominant-baseline="central" font-size="13.5" font-style="italic" fill="#4a7d5f">Vir</text><path d="M330 54 A276 276 0 0 0 192 90.98 L210 122.15 A240 240 0 0 1 330 90 Z" fill="#a8821f" fill-opacity="0.10" stroke="#d9cfb8" stroke-width="1"/><text x="263.22" y="80.79" text-anchor="middle" dominant-baseline="central" font-size="13.5" font-style="italic" fill="#a8821f">Lib</text><path d="M192 90.98 A276 276 0 0 0 90.98 192 L122.15 210 A240 240 0 0 1 210 122.15 Z" fill="#3a6ea5" fill-opacity="0.10" stroke="#d9cfb8" stroke-width="1"/><text x="147.57" y="147.57" text-anchor="middle" dominant-baseline="central" font-size="13.5" font-style="italic" fill="#3a6ea5">Sco</text><path d="M90.98 192 A276 276 0 0 0 54 330 L90 330 A240 240 0 0 1 122.15 210 Z" fill="#b3402e" fill-opacity="0.10" stroke="#d9cfb8" stroke-width="1"/><text x="80.79" y="263.22" text-anchor="middle" dominant-baseline="central" font-size="13.5" font-style="italic" fill="#b3402e">Sag</text><path d="M54 330 A276 276 0 0 0 90.98 468 L122.15 450 A240 240 0 0 1 90 330 Z" fill="#4a7d5f" fill-opacity="0.10" stroke="#d9cfb8" stroke-width="1"/><text x="80.79" y="396.78" text-anchor="middle" dominant-baseline="central" font-size="13.5" font-style="italic" fill="#4a7d5f">Cap</text><path d="M90.98 468 A276 276 0 0 0 192 569.02 L210 537.85 A240 240 0 0 1 122.15 450 Z" fill="#a8821f" fill-opacity="0.10" stroke="#d9cfb8" stroke-width="1"/><text x="147.57" y="512.43" text-anchor="middle" dominant-baseline="central" font-size="13.5" font-style="italic" fill="#a8821f">Aqu</text><path d="M192 569.02 A276 276 0 0 0 330 606 L330 570 A240 240 0 0 1 210 537.85 Z" fill="#3a6ea5" fill-opacity="0.10" stroke="#d9cfb8" stroke-width="1"/><text x="263.22" y="579.21" text-anchor="middle" dominant-baseline="central" font-size="13.5" font-style="italic" fill="#3a6ea5">Pis</text><line x1="330" y1="570" x2="330" y2="562" stroke="#c9bda0" stroke-width="1.4"/><line x1="371.68" y1="566.35" x2="370.98" y2="562.41" stroke="#c9bda0" stroke-width="0.7"/><line x1="412.08" y1="555.53" x2="410.72" y2="551.77" stroke="#c9bda0" stroke-width="0.7"/><line x1="450" y1="537.85" x2="446" y2="530.92" stroke="#c9bda0" stroke-width="1.4"/><line x1="484.27" y1="513.85" x2="481.7" y2="510.79" stroke="#c9bda0" stroke-width="0.7"/><line x1="513.85" y1="484.27" x2="510.79" y2="481.7" stroke="#c9bda0" stroke-width="0.7"/><line x1="537.85" y1="450" x2="530.92" y2="446" stroke="#c9bda0" stroke-width="1.4"/><line x1="555.53" y1="412.08" x2="551.77" y2="410.72" stroke="#c9bda0" stroke-width="0.7"/><line x1="566.35" y1="371.68" x2="562.41" y2="370.98" stroke="#c9bda0" stroke-width="0.7"/><line x1="570" y1="330" x2="562" y2="330" stroke="#c9bda0" stroke-width="1.4"/><line x1="566.35" y1="288.32" x2="562.41" y2="289.02" stroke="#c9bda0" stroke-width="0.7"/><line x1="555.53" y1="247.92" x2="551.77" y2="249.28" stroke="#c9bda0" stroke-width="0.7"/><line x1="537.85" y1="210" x2="530.92" y2="214" stroke="#c9bda0" stroke-width="1.4"/><line x1="513.85" y1="175.73" x2="510.79" y2="178.3" stroke="#c9bda0" stroke-width="0.7"/><line x1="484.27" y1="146.15" x2="481.7" y2="149.21" stroke="#c9bda0" stroke-width="0.7"/><line x1="450" y1="122.15" x2="446" y2="129.08" stroke="#c9bda0" stroke-width="1.4"/><line x1="412.08" y1="104.47" x2="410.72" y2="108.23" stroke="#c9bda0" stroke-width="0.7"/><line x1="371.68" y1="93.65" x2="370.98" y2="97.59" stroke="#c9bda0" stroke-width="0.7"/><line x1="330" y1="90" x2="330" y2="98" stroke="#c9bda0" stroke-width="1.4"/><line x1="288.32" y1="93.65" x2="289.02" y2="97.59" stroke="#c9bda0" stroke-width="0.7"/><line x1="247.92" y1="104.47" x2="249.28" y2="108.23" stroke="#c9bda0" stroke-width="0.7"/><line x1="210" y1="122.15" x2="214" y2="129.08" stroke="#c9bda0" stroke-width="1.4"/><line x1="175.73" y1="146.15" x2="178.3" y2="149.21" stroke="#c9bda0" stroke-width="0.7"/><line x1="146.15" y1="175.73" x2="149.21" y2="178.3" stroke="#c9bda0" stroke-width="0.7"/><line x1="122.15" y1="210" x2="129.08" y2="214" stroke="#c9bda0" stroke-width="1.4"/><line x1="104.47" y1="247.92" x2="108.23" y2="249.28" stroke="#c9bda0" stroke-width="0.7"/><line x1="93.65" y1="288.32" x2="97.59" y2="289.02" stroke="#c9bda0" stroke-width="0.7"/><line x1="90" y1="330" x2="98" y2="330" stroke="#c9bda0" stroke-width="1.4"/><line x1="93.65" y1="371.68" x2="97.59" y2="370.98" stroke="#c9bda0" stroke-width="0.7"/><line x1="104.47" y1="412.08" x2="108.23" y2="410.72" stroke="#c9bda0" stroke-width="0.7"/><line x1="122.15" y1="450" x2="129.08" y2="446" stroke="#c9bda0" stroke-width="1.4"/><line x1="146.15" y1="484.27" x2="149.21" y2="481.7" stroke="#c9bda0" stroke-width="0.7"/><line x1="175.73" y1="513.85" x2="178.3" y2="510.79" stroke="#c9bda0" stroke-width="0.7"/><line x1="210" y1="537.85" x2="214" y2="530.92" stroke="#c9bda0" stroke-width="1.4"/><line x1="247.92" y1="555.53" x2="249.28" y2="551.77" stroke="#c9bda0" stroke-width="0.7"/><line x1="288.32" y1="566.35" x2="289.02" y2="562.41" stroke="#c9bda0" stroke-width="0.7"/><circle cx="330" cy="330" r="240" fill="none" stroke="#d9cfb8" stroke-width="1"/><circle cx="330" cy="330" r="148" fill="none" stroke="#e7dcc2" stroke-width="1"/><g class="f250-hs f250-hs-ws"><line x1="182" y1="330" x2="90" y2="330" stroke="#e7dcc2" stroke-width="0.8"/><text x="175.45" y="371.41" text-anchor="middle" dominant-baseline="central" font-size="9.5" fill="#b5a98c">1</text><line x1="201.83" y1="404" x2="122.15" y2="450" stroke="#e7dcc2" stroke-width="0.8"/><text x="216.86" y="443.14" text-anchor="middle" dominant-baseline="central" font-size="9.5" fill="#b5a98c">2</text><line x1="256" y1="458.17" x2="210" y2="537.85" stroke="#e7dcc2" stroke-width="0.8"/><text x="288.59" y="484.55" text-anchor="middle" dominant-baseline="central" font-size="9.5" fill="#b5a98c">3</text><line x1="330" y1="478" x2="330" y2="570" stroke="#e7dcc2" stroke-width="0.8"/><text x="371.41" y="484.55" text-anchor="middle" dominant-baseline="central" font-size="9.5" fill="#b5a98c">4</text><line x1="404" y1="458.17" x2="450" y2="537.85" stroke="#e7dcc2" stroke-width="0.8"/><text x="443.14" y="443.14" text-anchor="middle" dominant-baseline="central" font-size="9.5" fill="#b5a98c">5</text><line x1="458.17" y1="404" x2="537.85" y2="450" stroke="#e7dcc2" stroke-width="0.8"/><text x="484.55" y="371.41" text-anchor="middle" dominant-baseline="central" font-size="9.5" fill="#b5a98c">6</text><line x1="478" y1="330" x2="570" y2="330" stroke="#e7dcc2" stroke-width="0.8"/><text x="484.55" y="288.59" text-anchor="middle" dominant-baseline="central" font-size="9.5" fill="#b5a98c">7</text><line x1="458.17" y1="256" x2="537.85" y2="210" stroke="#e7dcc2" stroke-width="0.8"/><text x="443.14" y="216.86" text-anchor="middle" dominant-baseline="central" font-size="9.5" fill="#b5a98c">8</text><line x1="404" y1="201.83" x2="450" y2="122.15" stroke="#e7dcc2" stroke-width="0.8"/><text x="371.41" y="175.45" text-anchor="middle" dominant-baseline="central" font-size="9.5" fill="#b5a98c">9</text><line x1="330" y1="182" x2="330" y2="90" stroke="#e7dcc2" stroke-width="0.8"/><text x="288.59" y="175.45" text-anchor="middle" dominant-baseline="central" font-size="9.5" fill="#b5a98c">10</text><line x1="256" y1="201.83" x2="210" y2="122.15" stroke="#e7dcc2" stroke-width="0.8"/><text x="216.86" y="216.86" text-anchor="middle" dominant-baseline="central" font-size="9.5" fill="#b5a98c">11</text><line x1="201.83" y1="256" x2="122.15" y2="210" stroke="#e7dcc2" stroke-width="0.8"/><text x="175.45" y="288.59" text-anchor="middle" dominant-baseline="central" font-size="9.5" fill="#b5a98c">12</text></g><line x1="113.71" y1="434.01" x2="68.65" y2="455.68" stroke="#7a2e1d" stroke-width="1.6"/><text x="57.83" y="460.88" text-anchor="middle" dominant-baseline="central" font-size="11" font-weight="bold" fill="#7a2e1d">AS</text><line x1="311.77" y1="474.86" x2="448.39" y2="415.44" stroke="#3a6ea5" stroke-width="1" stroke-opacity="0.45"/><line x1="324.87" y1="475.91" x2="328.83" y2="476" stroke="#c9a227" stroke-width="1" stroke-opacity="0.45"/><line x1="344.12" y1="475.32" x2="207.98" y2="410.16" stroke="#3a6ea5" stroke-width="1" stroke-opacity="0.45"/><line x1="467.4" y1="280.62" x2="311.77" y2="474.86" stroke="#3a6ea5" stroke-width="1" stroke-opacity="0.45"/><line x1="352.7" y1="474.22" x2="344.12" y2="475.32" stroke="#c9a227" stroke-width="1" stroke-opacity="0.45"/><line x1="328.83" y1="476" x2="207.98" y2="410.16" stroke="#3a6ea5" stroke-width="1" stroke-opacity="0.45"/><line x1="324.87" y1="475.91" x2="448.39" y2="415.44" stroke="#3a6ea5" stroke-width="1" stroke-opacity="0.45"/><line x1="467.4" y1="280.62" x2="448.39" y2="415.44" stroke="#3a6ea5" stroke-width="1" stroke-opacity="0.45"/><line x1="324.87" y1="475.91" x2="311.77" y2="474.86" stroke="#c9a227" stroke-width="1" stroke-opacity="0.45"/><line x1="344.12" y1="475.32" x2="328.83" y2="476" stroke="#c9a227" stroke-width="1" stroke-opacity="0.45"/><line x1="311.77" y1="474.86" x2="328.83" y2="476" stroke="#c9a227" stroke-width="1" stroke-opacity="0.45"/><line x1="324.87" y1="475.91" x2="344.12" y2="475.32" stroke="#c9a227" stroke-width="1" stroke-opacity="0.45"/><line x1="323.35" y1="475.85" x2="324.87" y2="475.91" stroke="#c9a227" stroke-width="1.7" stroke-opacity="0.9"/><line x1="383.55" y1="465.83" x2="467.4" y2="280.62" stroke="#b3402e" stroke-width="1" stroke-opacity="0.45"/><line x1="321.57" y1="569.85" x2="321.99" y2="557.86" stroke="#5b554a" stroke-width="1.3"/><circle cx="324.87" cy="475.91" r="2.2" fill="#5b554a"/><g transform="translate(278.43 521.36) scale(1.05)" color="#b07d2b" stroke="currentColor" stroke-width="1.6" stroke-linecap="round" fill="none" data-kk="planet:Sun;sign:Pisces" style="cursor:pointer"><circle cx="10" cy="10" r="13" fill="transparent" stroke="none"/><circle cx="10" cy="10" r="5.6"/><circle cx="10" cy="10" r="1.5" fill="currentColor" stroke="none"/></g><text x="293.32" y="510.31" text-anchor="middle" dominant-baseline="central" font-size="8.5" fill="#8a8377">27°</text><line x1="286.54" y1="543.62" x2="322.06" y2="555.86" stroke="#c9bda0" stroke-width="0.6"/><line x1="168.55" y1="152.42" x2="176.63" y2="161.3" stroke="#5b554a" stroke-width="1.3"/><circle cx="231.79" cy="221.97" r="2.2" fill="#5b554a"/><g transform="translate(180.93 167.08) scale(1.05)" color="#8d7960" stroke="currentColor" stroke-width="1.6" stroke-linecap="round" fill="none" data-kk="planet:Moon;sign:Scorpio" style="cursor:pointer"><circle cx="10" cy="10" r="13" fill="transparent" stroke="none"/><path d="M 11.5 3.9 A 6.3 6.3 0 1 0 11.5 16.1 A 7.1 7.1 0 0 1 11.5 3.9 Z" fill="currentColor" stroke="none"/></g><text x="206.22" y="193.85" text-anchor="middle" dominant-baseline="central" font-size="8.5" fill="#8a8377">12°</text><line x1="367.32" y1="567.08" x2="365.45" y2="555.23" stroke="#5b554a" stroke-width="1.3"/><circle cx="352.7" cy="474.22" r="2.2" fill="#5b554a"/><g transform="translate(360.57 521.36) scale(1.05)" color="#7b5ea7" stroke="currentColor" stroke-width="1.6" stroke-linecap="round" fill="none" data-kk="planet:Mercury;sign:Aries" style="cursor:pointer"><circle cx="10" cy="10" r="13" fill="transparent" stroke="none"/><circle cx="10" cy="8.6" r="3.4"/><path d="M 6.6 2.4 A 3.5 3.5 0 0 0 13.4 2.4"/><line x1="10" y1="12" x2="10" y2="17.4"/><line x1="7.2" y1="14.7" x2="12.8" y2="14.7"/></g><text x="366.68" y="510.31" text-anchor="middle" dominant-baseline="central" font-size="8.5" fill="#8a8377">8° ℞</text><line x1="373.46" y1="543.62" x2="365.14" y2="553.25" stroke="#c9bda0" stroke-width="0.6"/><line x1="353.2" y1="568.88" x2="352.04" y2="556.93" stroke="#5b554a" stroke-width="1.3"/><circle cx="344.12" cy="475.32" r="2.2" fill="#5b554a"/><g transform="translate(335.66 524.86) scale(1.05)" color="#2e8b74" stroke="currentColor" stroke-width="1.6" stroke-linecap="round" fill="none" data-kk="planet:Venus;sign:Aries" style="cursor:pointer"><circle cx="10" cy="10" r="13" fill="transparent" stroke="none"/><circle cx="10" cy="7.2" r="4.1"/><line x1="10" y1="11.3" x2="10" y2="17.6"/><line x1="6.9" y1="14.4" x2="13.1" y2="14.4"/></g><text x="344.44" y="513.43" text-anchor="middle" dominant-baseline="central" font-size="8.5" fill="#8a8377">5° ℞</text><line x1="555.86" y1="248.83" x2="544.57" y2="252.89" stroke="#5b554a" stroke-width="1.3"/><circle cx="467.4" cy="280.62" r="2.2" fill="#5b554a"/><g transform="translate(513.36 249.83) scale(1.05)" color="#c0504d" stroke="currentColor" stroke-width="1.6" stroke-linecap="round" fill="none" data-kk="planet:Mars;sign:Cancer" style="cursor:pointer"><circle cx="10" cy="10" r="13" fill="transparent" stroke="none"/><circle cx="8.4" cy="11.6" r="4.3"/><line x1="11.5" y1="8.5" x2="15.9" y2="4.1"/><polyline points="12.3,4.1 15.9,4.1 15.9,7.7" fill="none"/></g><text x="503.16" y="267.77" text-anchor="middle" dominant-baseline="central" font-size="8.5" fill="#8a8377">19°</text><line x1="560.77" y1="395.91" x2="549.23" y2="392.61" stroke="#5b554a" stroke-width="1.3"/><circle cx="470.39" cy="370.1" r="2.2" fill="#5b554a"/><g transform="translate(517.58 376.07) scale(1.05)" color="#5b554a" stroke="currentColor" stroke-width="1.6" stroke-linecap="round" fill="none" data-kk="planet:Jupiter;sign:Gemini" style="cursor:pointer"><circle cx="10" cy="10" r="13" fill="transparent" stroke="none"/><path d="M 4.4 6.4 A 3.5 3.5 0 0 1 11.2 5.6 Q 11.2 9.4 5.2 13.1 L 16 13.1" fill="none"/><line x1="12.9" y1="9.4" x2="12.9" y2="17.4"/></g><text x="506.93" y="380.53" text-anchor="middle" dominant-baseline="central" font-size="8.5" fill="#8a8377">14°</text><line x1="300.03" y1="568.12" x2="301.53" y2="556.22" stroke="#5b554a" stroke-width="1.3"/><circle cx="311.77" cy="474.86" r="2.2" fill="#5b554a"/><g transform="translate(230.81 505.43) scale(1.05)" color="#7a2e1d" stroke="currentColor" stroke-width="1.6" stroke-linecap="round" fill="none" data-kk="planet:Saturn;sign:Pisces" style="cursor:pointer"><circle cx="10" cy="10" r="13" fill="transparent" stroke="none"/><line x1="7.4" y1="3.2" x2="7.4" y2="11"/><line x1="4.8" y1="5.8" x2="10" y2="5.8"/><path d="M 7.4 11 Q 7.4 8.9 9.9 8.9 Q 12.9 8.9 12.9 12 Q 12.9 14.6 10.5 16 Q 9.9 16.5 10.4 17.5" fill="none"/></g><text x="250.79" y="496.08" text-anchor="middle" dominant-baseline="central" font-size="8.5" fill="#8a8377">22°</text><line x1="236.15" y1="526.76" x2="301.78" y2="554.23" stroke="#c9bda0" stroke-width="0.6"/><line x1="524.62" y1="470.44" x2="514.89" y2="463.42" stroke="#5b554a" stroke-width="1.3"/><circle cx="448.39" cy="415.44" r="2.2" fill="#5b554a"/><g transform="translate(486.55 440.05) scale(1.05)" color="#3a6ea5" stroke="currentColor" stroke-width="1.6" stroke-linecap="round" fill="none" data-kk="planet:Uranus;sign:Taurus" style="cursor:pointer"><circle cx="10" cy="10" r="13" fill="transparent" stroke="none"/><line x1="5.7" y1="3.4" x2="5.7" y2="11"/><line x1="14.3" y1="3.4" x2="14.3" y2="11"/><line x1="5.7" y1="7.2" x2="14.3" y2="7.2"/><line x1="10" y1="7.2" x2="10" y2="12.3"/><circle cx="10" cy="14.7" r="2.5"/><circle cx="10" cy="14.7" r="0.9" fill="currentColor" stroke="none"/></g><text x="479.21" y="437.67" text-anchor="middle" dominant-baseline="central" font-size="8.5" fill="#8a8377">24°</text><line x1="328.08" y1="569.99" x2="328.17" y2="557.99" stroke="#5b554a" stroke-width="1.3"/><circle cx="328.83" cy="476" r="2.2" fill="#5b554a"/><g transform="translate(303.34 524.86) scale(1.05)" color="#4a5fa5" stroke="currentColor" stroke-width="1.6" stroke-linecap="round" fill="none" data-kk="planet:Neptune;sign:Pisces" style="cursor:pointer"><circle cx="10" cy="10" r="13" fill="transparent" stroke="none"/><path d="M 4.6 3.8 Q 4.6 10.4 10 10.4 Q 15.4 10.4 15.4 3.8" fill="none"/><line x1="10" y1="3.4" x2="10" y2="17.2"/><line x1="6.9" y1="14.2" x2="13.1" y2="14.2"/></g><text x="315.56" y="513.43" text-anchor="middle" dominant-baseline="central" font-size="8.5" fill="#8a8377">29°</text><line x1="312.9" y1="547.33" x2="328.19" y2="555.99" stroke="#c9bda0" stroke-width="0.6"/><line x1="129.41" y1="461.78" x2="139.44" y2="455.19" stroke="#5b554a" stroke-width="1.3"/><circle cx="207.98" cy="410.16" r="2.2" fill="#5b554a"/><g transform="translate(149.73 436.18) scale(1.05)" color="#6e3d5e" stroke="currentColor" stroke-width="1.6" stroke-linecap="round" fill="none" data-kk="planet:Pluto;sign:Aquarius" style="cursor:pointer"><circle cx="10" cy="10" r="13" fill="transparent" stroke="none"/><circle cx="10" cy="5.4" r="2.1"/><path d="M 5.8 6 A 4.2 4.2 0 0 0 14.2 6" fill="none"/><line x1="10" y1="10.2" x2="10" y2="17.4"/><line x1="7" y1="14.2" x2="13" y2="14.2"/></g><text x="178.36" y="434.22" text-anchor="middle" dominant-baseline="central" font-size="8.5" fill="#8a8377">3°</text><line x1="418.03" y1="553.27" x2="413.63" y2="542.11" stroke="#5b554a" stroke-width="1.3"/><circle cx="383.55" cy="465.83" r="2.2" fill="#5b554a"/><g transform="translate(384.86 514.85) scale(1.05)" color="#a3622e" stroke="currentColor" stroke-width="1.6" stroke-linecap="round" fill="none"><circle cx="10" cy="14.6" r="3.1"/><line x1="10" y1="2.2" x2="10" y2="11.5"/><line x1="10" y1="7.6" x2="14.4" y2="3.4"/><line x1="10" y1="7.6" x2="14.4" y2="11.4"/></g><text x="388.38" y="504.49" text-anchor="middle" dominant-baseline="central" font-size="8.5" fill="#8a8377">21°</text><line x1="399.17" y1="536.73" x2="412.89" y2="540.25" stroke="#c9bda0" stroke-width="0.6"/><line x1="319.07" y1="569.75" x2="319.62" y2="557.76" stroke="#5b554a" stroke-width="1.3"/><circle cx="323.35" cy="475.85" r="2.2" fill="#5b554a"/><g transform="translate(254.14 514.85) scale(1.05)" color="#6b6257" stroke="currentColor" stroke-width="1.6" stroke-linecap="round" fill="none"><circle cx="5.6" cy="15.2" r="1.9"/><circle cx="14.4" cy="15.2" r="1.9"/><path d="M 6.9 13.8 A 6.4 6.4 0 1 1 13.1 13.8" fill="none"/></g><text x="271.62" y="504.49" text-anchor="middle" dominant-baseline="central" font-size="8.5" fill="#8a8377">27° ℞</text><line x1="260.83" y1="536.73" x2="319.71" y2="555.77" stroke="#c9bda0" stroke-width="0.6"/><line x1="340.93" y1="90.25" x2="340.38" y2="102.24" stroke="#5b554a" stroke-width="1.3"/><circle cx="336.65" cy="184.15" r="2.2" fill="#5b554a"/><g transform="translate(335.66 114.14) scale(1.05)" color="#9a917f" stroke="currentColor" stroke-width="1.6" stroke-linecap="round" fill="none"><circle cx="5.6" cy="4.8" r="1.9"/><circle cx="14.4" cy="4.8" r="1.9"/><path d="M 6.9 6.2 A 6.4 6.4 0 1 0 13.1 6.2" fill="none"/></g><text x="344.44" y="146.57" text-anchor="middle" dominant-baseline="central" font-size="8.5" fill="#8a8377">27° ℞</text><line x1="347.1" y1="112.67" x2="340.29" y2="104.23" stroke="#c9bda0" stroke-width="0.6"/><line x1="444.09" y1="541.15" x2="438.38" y2="530.59" stroke="#5b554a" stroke-width="1.3"/><circle cx="399.4" cy="458.45" r="2.2" fill="#5b554a"/><g transform="translate(408.19 505.43) scale(1.05)" color="#1d3f8c" stroke="currentColor" stroke-width="1.6" stroke-linecap="round" fill="none"><path d="M 10 2.8 L 8.35 7.73 L 3.34 7.84 L 7.34 10.87 L 5.89 15.66 L 10 12.8 L 14.11 15.66 L 12.66 10.87 L 16.66 7.84 L 11.65 7.73 Z" fill="none" stroke-linejoin="round"/></g><text x="409.21" y="496.08" text-anchor="middle" dominant-baseline="central" font-size="8.5" fill="#8a8377">28°</text><line x1="423.85" y1="526.76" x2="437.43" y2="528.83" stroke="#c9bda0" stroke-width="0.6"/><text x="330" y="316" text-anchor="middle" font-size="12" font-weight="bold" fill="#5b554a">VENUS–NEPTUNE CONJUNCTION PERSONA</text><text x="330" y="333" text-anchor="middle" font-size="9" font-style="italic" fill="#8a8377">18 Mar 2025 · 04:26:23 UTC-04:00 · Washington, D.C.</text><text x="330" y="348" text-anchor="middle" font-size="9" font-style="italic" fill="#8a8377">family venus-neptune-2025 · conditional subsidiary · zero vote</text></svg>