<svg class="f250-wheel" viewBox="0 0 660 660" xmlns="http://www.w3.org/2000/svg" style="width:100%;height:auto;display:block" font-family="Iowan Old Style,Palatino,Georgia,serif"><path d="M569.02 192 A276 276 0 0 0 468 90.98 L450 122.15 A240 240 0 0 1 537.85 210 Z" fill="#b3402e" fill-opacity="0.10" stroke="#d9cfb8" stroke-width="1"/><text x="512.43" y="147.57" text-anchor="middle" dominant-baseline="central" font-size="13.5" font-style="italic" fill="#b3402e">Ari</text><path d="M468 90.98 A276 276 0 0 0 330 54 L330 90 A240 240 0 0 1 450 122.15 Z" fill="#4a7d5f" fill-opacity="0.10" stroke="#d9cfb8" stroke-width="1"/><text x="396.78" y="80.79" text-anchor="middle" dominant-baseline="central" font-size="13.5" font-style="italic" fill="#4a7d5f">Tau</text><path d="M330 54 A276 276 0 0 0 192 90.98 L210 122.15 A240 240 0 0 1 330 90 Z" fill="#a8821f" fill-opacity="0.10" stroke="#d9cfb8" stroke-width="1"/><text x="263.22" y="80.79" text-anchor="middle" dominant-baseline="central" font-size="13.5" font-style="italic" fill="#a8821f">Gem</text><path d="M192 90.98 A276 276 0 0 0 90.98 192 L122.15 210 A240 240 0 0 1 210 122.15 Z" fill="#3a6ea5" fill-opacity="0.10" stroke="#d9cfb8" stroke-width="1"/><text x="147.57" y="147.57" text-anchor="middle" dominant-baseline="central" font-size="13.5" font-style="italic" fill="#3a6ea5">Can</text><path d="M90.98 192 A276 276 0 0 0 54 330 L90 330 A240 240 0 0 1 122.15 210 Z" fill="#b3402e" fill-opacity="0.10" stroke="#d9cfb8" stroke-width="1"/><text x="80.79" y="263.22" text-anchor="middle" dominant-baseline="central" font-size="13.5" font-style="italic" fill="#b3402e">Leo</text><path d="M54 330 A276 276 0 0 0 90.98 468 L122.15 450 A240 240 0 0 1 90 330 Z" fill="#4a7d5f" fill-opacity="0.10" stroke="#d9cfb8" stroke-width="1"/><text x="80.79" y="396.78" text-anchor="middle" dominant-baseline="central" font-size="13.5" font-style="italic" fill="#4a7d5f">Vir</text><path d="M90.98 468 A276 276 0 0 0 192 569.02 L210 537.85 A240 240 0 0 1 122.15 450 Z" fill="#a8821f" fill-opacity="0.10" stroke="#d9cfb8" stroke-width="1"/><text x="147.57" y="512.43" text-anchor="middle" dominant-baseline="central" font-size="13.5" font-style="italic" fill="#a8821f">Lib</text><path d="M192 569.02 A276 276 0 0 0 330 606 L330 570 A240 240 0 0 1 210 537.85 Z" fill="#3a6ea5" fill-opacity="0.10" stroke="#d9cfb8" stroke-width="1"/><text x="263.22" y="579.21" text-anchor="middle" dominant-baseline="central" font-size="13.5" font-style="italic" fill="#3a6ea5">Sco</text><path d="M330 606 A276 276 0 0 0 468 569.02 L450 537.85 A240 240 0 0 1 330 570 Z" fill="#b3402e" fill-opacity="0.10" stroke="#d9cfb8" stroke-width="1"/><text x="396.78" y="579.21" text-anchor="middle" dominant-baseline="central" font-size="13.5" font-style="italic" fill="#b3402e">Sag</text><path d="M468 569.02 A276 276 0 0 0 569.02 468 L537.85 450 A240 240 0 0 1 450 537.85 Z" fill="#4a7d5f" fill-opacity="0.10" stroke="#d9cfb8" stroke-width="1"/><text x="512.43" y="512.43" text-anchor="middle" dominant-baseline="central" font-size="13.5" font-style="italic" fill="#4a7d5f">Cap</text><path d="M569.02 468 A276 276 0 0 0 606 330 L570 330 A240 240 0 0 1 537.85 450 Z" fill="#a8821f" fill-opacity="0.10" stroke="#d9cfb8" stroke-width="1"/><text x="579.21" y="396.78" text-anchor="middle" dominant-baseline="central" font-size="13.5" font-style="italic" fill="#a8821f">Aqu</text><path d="M606 330 A276 276 0 0 0 569.02 192 L537.85 210 A240 240 0 0 1 570 330 Z" fill="#3a6ea5" fill-opacity="0.10" stroke="#d9cfb8" stroke-width="1"/><text x="579.21" y="263.22" text-anchor="middle" dominant-baseline="central" font-size="13.5" font-style="italic" fill="#3a6ea5">Pis</text><line x1="537.85" y1="210" x2="530.92" y2="214" stroke="#c9bda0" stroke-width="1.4"/><line x1="513.85" y1="175.73" x2="510.79" y2="178.3" stroke="#c9bda0" stroke-width="0.7"/><line x1="484.27" y1="146.15" x2="481.7" y2="149.21" stroke="#c9bda0" stroke-width="0.7"/><line x1="450" y1="122.15" x2="446" y2="129.08" stroke="#c9bda0" stroke-width="1.4"/><line x1="412.08" y1="104.47" x2="410.72" y2="108.23" stroke="#c9bda0" stroke-width="0.7"/><line x1="371.68" y1="93.65" x2="370.98" y2="97.59" stroke="#c9bda0" stroke-width="0.7"/><line x1="330" y1="90" x2="330" y2="98" stroke="#c9bda0" stroke-width="1.4"/><line x1="288.32" y1="93.65" x2="289.02" y2="97.59" stroke="#c9bda0" stroke-width="0.7"/><line x1="247.92" y1="104.47" x2="249.28" y2="108.23" stroke="#c9bda0" stroke-width="0.7"/><line x1="210" y1="122.15" x2="214" y2="129.08" stroke="#c9bda0" stroke-width="1.4"/><line x1="175.73" y1="146.15" x2="178.3" y2="149.21" stroke="#c9bda0" stroke-width="0.7"/><line x1="146.15" y1="175.73" x2="149.21" y2="178.3" stroke="#c9bda0" stroke-width="0.7"/><line x1="122.15" y1="210" x2="129.08" y2="214" stroke="#c9bda0" stroke-width="1.4"/><line x1="104.47" y1="247.92" x2="108.23" y2="249.28" stroke="#c9bda0" stroke-width="0.7"/><line x1="93.65" y1="288.32" x2="97.59" y2="289.02" stroke="#c9bda0" stroke-width="0.7"/><line x1="90" y1="330" x2="98" y2="330" stroke="#c9bda0" stroke-width="1.4"/><line x1="93.65" y1="371.68" x2="97.59" y2="370.98" stroke="#c9bda0" stroke-width="0.7"/><line x1="104.47" y1="412.08" x2="108.23" y2="410.72" stroke="#c9bda0" stroke-width="0.7"/><line x1="122.15" y1="450" x2="129.08" y2="446" stroke="#c9bda0" stroke-width="1.4"/><line x1="146.15" y1="484.27" x2="149.21" y2="481.7" stroke="#c9bda0" stroke-width="0.7"/><line x1="175.73" y1="513.85" x2="178.3" y2="510.79" stroke="#c9bda0" stroke-width="0.7"/><line x1="210" y1="537.85" x2="214" y2="530.92" stroke="#c9bda0" stroke-width="1.4"/><line x1="247.92" y1="555.53" x2="249.28" y2="551.77" stroke="#c9bda0" stroke-width="0.7"/><line x1="288.32" y1="566.35" x2="289.02" y2="562.41" stroke="#c9bda0" stroke-width="0.7"/><line x1="330" y1="570" x2="330" y2="562" stroke="#c9bda0" stroke-width="1.4"/><line x1="371.68" y1="566.35" x2="370.98" y2="562.41" stroke="#c9bda0" stroke-width="0.7"/><line x1="412.08" y1="555.53" x2="410.72" y2="551.77" stroke="#c9bda0" stroke-width="0.7"/><line x1="450" y1="537.85" x2="446" y2="530.92" stroke="#c9bda0" stroke-width="1.4"/><line x1="484.27" y1="513.85" x2="481.7" y2="510.79" stroke="#c9bda0" stroke-width="0.7"/><line x1="513.85" y1="484.27" x2="510.79" y2="481.7" stroke="#c9bda0" stroke-width="0.7"/><line x1="537.85" y1="450" x2="530.92" y2="446" stroke="#c9bda0" stroke-width="1.4"/><line x1="555.53" y1="412.08" x2="551.77" y2="410.72" stroke="#c9bda0" stroke-width="0.7"/><line x1="566.35" y1="371.68" x2="562.41" y2="370.98" stroke="#c9bda0" stroke-width="0.7"/><line x1="570" y1="330" x2="562" y2="330" stroke="#c9bda0" stroke-width="1.4"/><line x1="566.35" y1="288.32" x2="562.41" y2="289.02" stroke="#c9bda0" stroke-width="0.7"/><line x1="555.53" y1="247.92" x2="551.77" y2="249.28" stroke="#c9bda0" stroke-width="0.7"/><circle cx="330" cy="330" r="240" fill="none" stroke="#d9cfb8" stroke-width="1"/><circle cx="330" cy="330" r="148" fill="none" stroke="#e7dcc2" stroke-width="1"/><g class="f250-hs f250-hs-ws"><line x1="182" y1="330" x2="90" y2="330" stroke="#e7dcc2" stroke-width="0.8"/><text x="175.45" y="371.41" text-anchor="middle" dominant-baseline="central" font-size="9.5" fill="#b5a98c">1</text><line x1="201.83" y1="404" x2="122.15" y2="450" stroke="#e7dcc2" stroke-width="0.8"/><text x="216.86" y="443.14" text-anchor="middle" dominant-baseline="central" font-size="9.5" fill="#b5a98c">2</text><line x1="256" y1="458.17" x2="210" y2="537.85" stroke="#e7dcc2" stroke-width="0.8"/><text x="288.59" y="484.55" text-anchor="middle" dominant-baseline="central" font-size="9.5" fill="#b5a98c">3</text><line x1="330" y1="478" x2="330" y2="570" stroke="#e7dcc2" stroke-width="0.8"/><text x="371.41" y="484.55" text-anchor="middle" dominant-baseline="central" font-size="9.5" fill="#b5a98c">4</text><line x1="404" y1="458.17" x2="450" y2="537.85" stroke="#e7dcc2" stroke-width="0.8"/><text x="443.14" y="443.14" text-anchor="middle" dominant-baseline="central" font-size="9.5" fill="#b5a98c">5</text><line x1="458.17" y1="404" x2="537.85" y2="450" stroke="#e7dcc2" stroke-width="0.8"/><text x="484.55" y="371.41" text-anchor="middle" dominant-baseline="central" font-size="9.5" fill="#b5a98c">6</text><line x1="478" y1="330" x2="570" y2="330" stroke="#e7dcc2" stroke-width="0.8"/><text x="484.55" y="288.59" text-anchor="middle" dominant-baseline="central" font-size="9.5" fill="#b5a98c">7</text><line x1="458.17" y1="256" x2="537.85" y2="210" stroke="#e7dcc2" stroke-width="0.8"/><text x="443.14" y="216.86" text-anchor="middle" dominant-baseline="central" font-size="9.5" fill="#b5a98c">8</text><line x1="404" y1="201.83" x2="450" y2="122.15" stroke="#e7dcc2" stroke-width="0.8"/><text x="371.41" y="175.45" text-anchor="middle" dominant-baseline="central" font-size="9.5" fill="#b5a98c">9</text><line x1="330" y1="182" x2="330" y2="90" stroke="#e7dcc2" stroke-width="0.8"/><text x="288.59" y="175.45" text-anchor="middle" dominant-baseline="central" font-size="9.5" fill="#b5a98c">10</text><line x1="256" y1="201.83" x2="210" y2="122.15" stroke="#e7dcc2" stroke-width="0.8"/><text x="216.86" y="216.86" text-anchor="middle" dominant-baseline="central" font-size="9.5" fill="#b5a98c">11</text><line x1="201.83" y1="256" x2="122.15" y2="210" stroke="#e7dcc2" stroke-width="0.8"/><text x="175.45" y="288.59" text-anchor="middle" dominant-baseline="central" font-size="9.5" fill="#b5a98c">12</text></g><line x1="95.21" y1="379.75" x2="46.3" y2="390.12" stroke="#7a2e1d" stroke-width="1.6"/><text x="34.56" y="392.61" text-anchor="middle" dominant-baseline="central" font-size="11" font-weight="bold" fill="#7a2e1d">AS</text><line x1="470.89" y1="291.72" x2="226.27" y2="227.26" stroke="#3a6ea5" stroke-width="2.4" stroke-opacity="0.9"/><line x1="454.78" y1="254.19" x2="454.05" y2="253.02" stroke="#c9a227" stroke-width="1.7" stroke-opacity="0.9"/><line x1="382.09" y1="193.61" x2="474.38" y2="308.3" stroke="#3a6ea5" stroke-width="1.7" stroke-opacity="0.9"/><line x1="450.63" y1="247.75" x2="462.36" y2="391.63" stroke="#3a6ea5" stroke-width="1.7" stroke-opacity="0.9"/><line x1="450.63" y1="247.75" x2="454.05" y2="253.02" stroke="#c9a227" stroke-width="1" stroke-opacity="0.45"/><line x1="454.78" y1="254.19" x2="334.2" y2="184.06" stroke="#3a6ea5" stroke-width="1" stroke-opacity="0.45"/><line x1="454.78" y1="254.19" x2="450.63" y2="247.75" stroke="#c9a227" stroke-width="1" stroke-opacity="0.45"/><line x1="454.05" y1="253.02" x2="462.36" y2="391.63" stroke="#3a6ea5" stroke-width="1" stroke-opacity="0.45"/><line x1="334.2" y1="184.06" x2="454.05" y2="253.02" stroke="#3a6ea5" stroke-width="1" stroke-opacity="0.45"/><line x1="454.78" y1="254.19" x2="462.36" y2="391.63" stroke="#3a6ea5" stroke-width="1" stroke-opacity="0.45"/><line x1="425.44" y1="219.51" x2="226.27" y2="227.26" stroke="#b3402e" stroke-width="1" stroke-opacity="0.45"/><line x1="382.09" y1="193.61" x2="462.36" y2="391.63" stroke="#b3402e" stroke-width="1" stroke-opacity="0.45"/><line x1="474.38" y1="308.3" x2="470.89" y2="291.72" stroke="#c9a227" stroke-width="1" stroke-opacity="0.45"/><line x1="334.2" y1="184.06" x2="462.36" y2="391.63" stroke="#3a6ea5" stroke-width="1" stroke-opacity="0.45"/><line x1="474.38" y1="308.3" x2="226.27" y2="227.26" stroke="#3a6ea5" stroke-width="1" stroke-opacity="0.45"/><line x1="474.26" y1="307.56" x2="474.38" y2="308.3" stroke="#c9a227" stroke-width="2.4" stroke-opacity="0.9"/><line x1="535.11" y1="205.39" x2="524.86" y2="211.62" stroke="#5b554a" stroke-width="1.3"/><circle cx="454.78" cy="254.19" r="2.2" fill="#5b554a"/><g transform="translate(489.27 202.82) scale(1.05)" color="#b07d2b" stroke="currentColor" stroke-width="1.6" stroke-linecap="round" fill="none" data-kk="planet:Sun;sign:Aries" style="cursor:pointer"><circle cx="10" cy="10" r="13" fill="transparent" stroke="none"/><circle cx="10" cy="10" r="5.6"/><circle cx="10" cy="10" r="1.5" fill="currentColor" stroke="none"/></g><text x="481.64" y="225.78" text-anchor="middle" dominant-baseline="central" font-size="8.5" fill="#8a8377">1°</text><line x1="509.66" y1="206.52" x2="523.15" y2="212.66" stroke="#c9bda0" stroke-width="0.6"/><line x1="415.63" y1="105.8" x2="411.35" y2="117.01" stroke="#5b554a" stroke-width="1.3"/><circle cx="382.09" cy="193.61" r="2.2" fill="#5b554a"/><g transform="translate(393 127.06) scale(1.05)" color="#8d7960" stroke="currentColor" stroke-width="1.6" stroke-linecap="round" fill="none" data-kk="planet:Moon;sign:Taurus" style="cursor:pointer"><circle cx="10" cy="10" r="13" fill="transparent" stroke="none"/><path d="M 11.5 3.9 A 6.3 6.3 0 1 0 11.5 16.1 A 7.1 7.1 0 0 1 11.5 3.9 Z" fill="currentColor" stroke="none"/></g><text x="395.65" y="158.11" text-anchor="middle" dominant-baseline="central" font-size="8.5" fill="#8a8377">9°</text><line x1="567.33" y1="294.32" x2="555.47" y2="296.11" stroke="#5b554a" stroke-width="1.3"/><circle cx="474.38" cy="308.3" r="2.2" fill="#5b554a"/><g transform="translate(523.74 292.61) scale(1.05)" color="#7b5ea7" stroke="currentColor" stroke-width="1.6" stroke-linecap="round" fill="none" data-kk="planet:Mercury;sign:Pisces" style="cursor:pointer"><circle cx="10" cy="10" r="13" fill="transparent" stroke="none"/><circle cx="10" cy="8.6" r="3.4"/><path d="M 6.6 2.4 A 3.5 3.5 0 0 0 13.4 2.4"/><line x1="10" y1="12" x2="10" y2="17.4"/><line x1="7.2" y1="14.7" x2="12.8" y2="14.7"/></g><text x="512.43" y="305.98" text-anchor="middle" dominant-baseline="central" font-size="8.5" fill="#8a8377">8°</text><line x1="486.89" y1="148.38" x2="479.04" y2="157.46" stroke="#5b554a" stroke-width="1.3"/><circle cx="425.44" cy="219.51" r="2.2" fill="#5b554a"/><g transform="translate(451.22 161.12) scale(1.05)" color="#2e8b74" stroke="currentColor" stroke-width="1.6" stroke-linecap="round" fill="none" data-kk="planet:Venus;sign:Aries" style="cursor:pointer"><circle cx="10" cy="10" r="13" fill="transparent" stroke="none"/><circle cx="10" cy="7.2" r="4.1"/><line x1="10" y1="11.3" x2="10" y2="17.6"/><line x1="6.9" y1="14.4" x2="13.1" y2="14.4"/></g><text x="447.66" y="188.53" text-anchor="middle" dominant-baseline="central" font-size="8.5" fill="#8a8377">19°</text><line x1="561.6" y1="267.07" x2="550.02" y2="270.22" stroke="#5b554a" stroke-width="1.3"/><circle cx="470.89" cy="291.72" r="2.2" fill="#5b554a"/><g transform="translate(505.43 230.81) scale(1.05)" color="#c0504d" stroke="currentColor" stroke-width="1.6" stroke-linecap="round" fill="none" data-kk="planet:Mars;sign:Pisces" style="cursor:pointer"><circle cx="10" cy="10" r="13" fill="transparent" stroke="none"/><circle cx="8.4" cy="11.6" r="4.3"/><line x1="11.5" y1="8.5" x2="15.9" y2="4.1"/><polyline points="12.3,4.1 15.9,4.1 15.9,7.7" fill="none"/></g><text x="496.08" y="250.79" text-anchor="middle" dominant-baseline="central" font-size="8.5" fill="#8a8377">15°</text><line x1="526.76" y1="236.15" x2="548.09" y2="270.74" stroke="#c9bda0" stroke-width="0.6"/><line x1="159.48" y1="161.11" x2="168.01" y2="169.55" stroke="#5b554a" stroke-width="1.3"/><circle cx="226.27" cy="227.26" r="2.2" fill="#5b554a"/><g transform="translate(173.14 174.54) scale(1.05)" color="#5b554a" stroke="currentColor" stroke-width="1.6" stroke-linecap="round" fill="none" data-kk="planet:Jupiter;sign:Cancer" style="cursor:pointer"><circle cx="10" cy="10" r="13" fill="transparent" stroke="none"/><path d="M 4.4 6.4 A 3.5 3.5 0 0 1 11.2 5.6 Q 11.2 9.4 5.2 13.1 L 16 13.1" fill="none"/><line x1="12.9" y1="9.4" x2="12.9" y2="17.4"/></g><text x="199.27" y="200.52" text-anchor="middle" dominant-baseline="central" font-size="8.5" fill="#8a8377">15°</text><line x1="528.29" y1="194.8" x2="518.38" y2="201.56" stroke="#5b554a" stroke-width="1.3"/><circle cx="450.63" cy="247.75" r="2.2" fill="#5b554a"/><g transform="translate(465.16 173.84) scale(1.05)" color="#7a2e1d" stroke="currentColor" stroke-width="1.6" stroke-linecap="round" fill="none" data-kk="planet:Saturn;sign:Aries" style="cursor:pointer"><circle cx="10" cy="10" r="13" fill="transparent" stroke="none"/><line x1="7.4" y1="3.2" x2="7.4" y2="11"/><line x1="4.8" y1="5.8" x2="10" y2="5.8"/><path d="M 7.4 11 Q 7.4 8.9 9.9 8.9 Q 12.9 8.9 12.9 12 Q 12.9 14.6 10.5 16 Q 9.9 16.5 10.4 17.5" fill="none"/></g><text x="460.11" y="199.89" text-anchor="middle" dominant-baseline="central" font-size="8.5" fill="#8a8377">4°</text><line x1="484.15" y1="175.85" x2="516.72" y2="202.68" stroke="#c9bda0" stroke-width="0.6"/><line x1="336.9" y1="90.1" x2="336.56" y2="102.09" stroke="#5b554a" stroke-width="1.3"/><circle cx="334.2" cy="184.06" r="2.2" fill="#5b554a"/><g transform="translate(335.66 114.14) scale(1.05)" color="#3a6ea5" stroke="currentColor" stroke-width="1.6" stroke-linecap="round" fill="none" data-kk="planet:Uranus;sign:Taurus" style="cursor:pointer"><circle cx="10" cy="10" r="13" fill="transparent" stroke="none"/><line x1="5.7" y1="3.4" x2="5.7" y2="11"/><line x1="14.3" y1="3.4" x2="14.3" y2="11"/><line x1="5.7" y1="7.2" x2="14.3" y2="7.2"/><line x1="10" y1="7.2" x2="10" y2="12.3"/><circle cx="10" cy="14.7" r="2.5"/><circle cx="10" cy="14.7" r="0.9" fill="currentColor" stroke="none"/></g><text x="344.44" y="146.57" text-anchor="middle" dominant-baseline="central" font-size="8.5" fill="#8a8377">28°</text><line x1="347.1" y1="112.67" x2="336.5" y2="104.09" stroke="#c9bda0" stroke-width="0.6"/><line x1="533.93" y1="203.45" x2="523.73" y2="209.78" stroke="#5b554a" stroke-width="1.3"/><circle cx="454.05" cy="253.02" r="2.2" fill="#5b554a"/><g transform="translate(477.88 187.78) scale(1.05)" color="#4a5fa5" stroke="currentColor" stroke-width="1.6" stroke-linecap="round" fill="none" data-kk="planet:Neptune;sign:Aries" style="cursor:pointer"><circle cx="10" cy="10" r="13" fill="transparent" stroke="none"/><path d="M 4.6 3.8 Q 4.6 10.4 10 10.4 Q 15.4 10.4 15.4 3.8" fill="none"/><line x1="10" y1="3.4" x2="10" y2="17.2"/><line x1="6.9" y1="14.2" x2="13.1" y2="14.2"/></g><text x="471.47" y="212.34" text-anchor="middle" dominant-baseline="central" font-size="8.5" fill="#8a8377">1°</text><line x1="497.61" y1="190.6" x2="522.03" y2="210.83" stroke="#c9bda0" stroke-width="0.6"/><line x1="547.57" y1="431.31" x2="536.69" y2="426.24" stroke="#5b554a" stroke-width="1.3"/><circle cx="462.36" cy="391.63" r="2.2" fill="#5b554a"/><g transform="translate(506.25 406.46) scale(1.05)" color="#6e3d5e" stroke="currentColor" stroke-width="1.6" stroke-linecap="round" fill="none" data-kk="planet:Pluto;sign:Aquarius" style="cursor:pointer"><circle cx="10" cy="10" r="13" fill="transparent" stroke="none"/><circle cx="10" cy="5.4" r="2.1"/><path d="M 5.8 6 A 4.2 4.2 0 0 0 14.2 6" fill="none"/><line x1="10" y1="10.2" x2="10" y2="17.4"/><line x1="7" y1="14.2" x2="13" y2="14.2"/></g><text x="496.8" y="407.67" text-anchor="middle" dominant-baseline="central" font-size="8.5" fill="#8a8377">5°</text><line x1="467.22" y1="133.1" x2="460.36" y2="142.95" stroke="#5b554a" stroke-width="1.3"/><circle cx="413.48" cy="210.22" r="2.2" fill="#5b554a"/><g transform="translate(436.18 149.73) scale(1.05)" color="#a3622e" stroke="currentColor" stroke-width="1.6" stroke-linecap="round" fill="none"><circle cx="10" cy="14.6" r="3.1"/><line x1="10" y1="2.2" x2="10" y2="11.5"/><line x1="10" y1="7.6" x2="14.4" y2="3.4"/><line x1="10" y1="7.6" x2="14.4" y2="11.4"/></g><text x="434.22" y="178.36" text-anchor="middle" dominant-baseline="central" font-size="8.5" fill="#8a8377">25°</text><line x1="567.15" y1="293.11" x2="555.29" y2="294.95" stroke="#5b554a" stroke-width="1.3"/><circle cx="474.26" cy="307.56" r="2.2" fill="#5b554a"/><g transform="translate(517.02 260.99) scale(1.05)" color="#6b6257" stroke="currentColor" stroke-width="1.6" stroke-linecap="round" fill="none"><circle cx="5.6" cy="15.2" r="1.9"/><circle cx="14.4" cy="15.2" r="1.9"/><path d="M 6.9 13.8 A 6.4 6.4 0 1 1 13.1 13.8" fill="none"/></g><text x="506.42" y="277.74" text-anchor="middle" dominant-baseline="central" font-size="8.5" fill="#8a8377">8° ℞</text><line x1="539.02" y1="268.08" x2="553.31" y2="295.26" stroke="#c9bda0" stroke-width="0.6"/><line x1="92.85" y1="366.89" x2="104.71" y2="365.05" stroke="#5b554a" stroke-width="1.3"/><circle cx="185.74" cy="352.44" r="2.2" fill="#5b554a"/><g transform="translate(115.95 351.16) scale(1.05)" color="#9a917f" stroke="currentColor" stroke-width="1.6" stroke-linecap="round" fill="none"><circle cx="5.6" cy="4.8" r="1.9"/><circle cx="14.4" cy="4.8" r="1.9"/><path d="M 6.9 6.2 A 6.4 6.4 0 1 0 13.1 6.2" fill="none"/></g><text x="148.19" y="358.28" text-anchor="middle" dominant-baseline="central" font-size="8.5" fill="#8a8377">8° ℞</text><line x1="96.07" y1="276.35" x2="107.77" y2="279.03" stroke="#5b554a" stroke-width="1.3"/><circle cx="187.69" cy="297.36" r="2.2" fill="#5b554a"/><g transform="translate(118.71 273.45) scale(1.05)" color="#1d3f8c" stroke="currentColor" stroke-width="1.6" stroke-linecap="round" fill="none"><path d="M 10 2.8 L 8.35 7.73 L 3.34 7.84 L 7.34 10.87 L 5.89 15.66 L 10 12.8 L 14.11 15.66 L 12.66 10.87 L 16.66 7.84 L 11.65 7.73 Z" fill="none" stroke-linejoin="round"/></g><text x="150.66" y="288.87" text-anchor="middle" dominant-baseline="central" font-size="8.5" fill="#8a8377">17° ℞</text><text x="330" y="316" text-anchor="middle" font-size="12" font-weight="bold" fill="#5b554a">VENUS–NEPTUNE CONJUNCTION PERSONA</text><text x="330" y="333" text-anchor="middle" font-size="9" font-style="italic" fill="#8a8377">21 Mar 2026 · 17:40:56 UTC-04:00 · Washington, D.C.</text><text x="330" y="348" text-anchor="middle" font-size="9" font-style="italic" fill="#8a8377">family venus-neptune-2026 · conditional subsidiary · zero vote</text></svg>