<svg class="f250-wheel" viewBox="0 0 660 660" xmlns="http://www.w3.org/2000/svg" style="width:100%;height:auto;display:block" font-family="Iowan Old Style,Palatino,Georgia,serif"><path d="M330 606 A276 276 0 0 0 468 569.02 L450 537.85 A240 240 0 0 1 330 570 Z" fill="#b3402e" fill-opacity="0.10" stroke="#d9cfb8" stroke-width="1"/><text x="396.78" y="579.21" text-anchor="middle" dominant-baseline="central" font-size="13.5" font-style="italic" fill="#b3402e">Ari</text><path d="M468 569.02 A276 276 0 0 0 569.02 468 L537.85 450 A240 240 0 0 1 450 537.85 Z" fill="#4a7d5f" fill-opacity="0.10" stroke="#d9cfb8" stroke-width="1"/><text x="512.43" y="512.43" text-anchor="middle" dominant-baseline="central" font-size="13.5" font-style="italic" fill="#4a7d5f">Tau</text><path d="M569.02 468 A276 276 0 0 0 606 330 L570 330 A240 240 0 0 1 537.85 450 Z" fill="#a8821f" fill-opacity="0.10" stroke="#d9cfb8" stroke-width="1"/><text x="579.21" y="396.78" text-anchor="middle" dominant-baseline="central" font-size="13.5" font-style="italic" fill="#a8821f">Gem</text><path d="M606 330 A276 276 0 0 0 569.02 192 L537.85 210 A240 240 0 0 1 570 330 Z" fill="#3a6ea5" fill-opacity="0.10" stroke="#d9cfb8" stroke-width="1"/><text x="579.21" y="263.22" text-anchor="middle" dominant-baseline="central" font-size="13.5" font-style="italic" fill="#3a6ea5">Can</text><path d="M569.02 192 A276 276 0 0 0 468 90.98 L450 122.15 A240 240 0 0 1 537.85 210 Z" fill="#b3402e" fill-opacity="0.10" stroke="#d9cfb8" stroke-width="1"/><text x="512.43" y="147.57" text-anchor="middle" dominant-baseline="central" font-size="13.5" font-style="italic" fill="#b3402e">Leo</text><path d="M468 90.98 A276 276 0 0 0 330 54 L330 90 A240 240 0 0 1 450 122.15 Z" fill="#4a7d5f" fill-opacity="0.10" stroke="#d9cfb8" stroke-width="1"/><text x="396.78" y="80.79" text-anchor="middle" dominant-baseline="central" font-size="13.5" font-style="italic" fill="#4a7d5f">Vir</text><path d="M330 54 A276 276 0 0 0 192 90.98 L210 122.15 A240 240 0 0 1 330 90 Z" fill="#a8821f" fill-opacity="0.10" stroke="#d9cfb8" stroke-width="1"/><text x="263.22" y="80.79" text-anchor="middle" dominant-baseline="central" font-size="13.5" font-style="italic" fill="#a8821f">Lib</text><path d="M192 90.98 A276 276 0 0 0 90.98 192 L122.15 210 A240 240 0 0 1 210 122.15 Z" fill="#3a6ea5" fill-opacity="0.10" stroke="#d9cfb8" stroke-width="1"/><text x="147.57" y="147.57" text-anchor="middle" dominant-baseline="central" font-size="13.5" font-style="italic" fill="#3a6ea5">Sco</text><path d="M90.98 192 A276 276 0 0 0 54 330 L90 330 A240 240 0 0 1 122.15 210 Z" fill="#b3402e" fill-opacity="0.10" stroke="#d9cfb8" stroke-width="1"/><text x="80.79" y="263.22" text-anchor="middle" dominant-baseline="central" font-size="13.5" font-style="italic" fill="#b3402e">Sag</text><path d="M54 330 A276 276 0 0 0 90.98 468 L122.15 450 A240 240 0 0 1 90 330 Z" fill="#4a7d5f" fill-opacity="0.10" stroke="#d9cfb8" stroke-width="1"/><text x="80.79" y="396.78" text-anchor="middle" dominant-baseline="central" font-size="13.5" font-style="italic" fill="#4a7d5f">Cap</text><path d="M90.98 468 A276 276 0 0 0 192 569.02 L210 537.85 A240 240 0 0 1 122.15 450 Z" fill="#a8821f" fill-opacity="0.10" stroke="#d9cfb8" stroke-width="1"/><text x="147.57" y="512.43" text-anchor="middle" dominant-baseline="central" font-size="13.5" font-style="italic" fill="#a8821f">Aqu</text><path d="M192 569.02 A276 276 0 0 0 330 606 L330 570 A240 240 0 0 1 210 537.85 Z" fill="#3a6ea5" fill-opacity="0.10" stroke="#d9cfb8" stroke-width="1"/><text x="263.22" y="579.21" text-anchor="middle" dominant-baseline="central" font-size="13.5" font-style="italic" fill="#3a6ea5">Pis</text><line x1="330" y1="570" x2="330" y2="562" stroke="#c9bda0" stroke-width="1.4"/><line x1="371.68" y1="566.35" x2="370.98" y2="562.41" stroke="#c9bda0" stroke-width="0.7"/><line x1="412.08" y1="555.53" x2="410.72" y2="551.77" stroke="#c9bda0" stroke-width="0.7"/><line x1="450" y1="537.85" x2="446" y2="530.92" stroke="#c9bda0" stroke-width="1.4"/><line x1="484.27" y1="513.85" x2="481.7" y2="510.79" stroke="#c9bda0" stroke-width="0.7"/><line x1="513.85" y1="484.27" x2="510.79" y2="481.7" stroke="#c9bda0" stroke-width="0.7"/><line x1="537.85" y1="450" x2="530.92" y2="446" stroke="#c9bda0" stroke-width="1.4"/><line x1="555.53" y1="412.08" x2="551.77" y2="410.72" stroke="#c9bda0" stroke-width="0.7"/><line x1="566.35" y1="371.68" x2="562.41" y2="370.98" stroke="#c9bda0" stroke-width="0.7"/><line x1="570" y1="330" x2="562" y2="330" stroke="#c9bda0" stroke-width="1.4"/><line x1="566.35" y1="288.32" x2="562.41" y2="289.02" stroke="#c9bda0" stroke-width="0.7"/><line x1="555.53" y1="247.92" x2="551.77" y2="249.28" stroke="#c9bda0" stroke-width="0.7"/><line x1="537.85" y1="210" x2="530.92" y2="214" stroke="#c9bda0" stroke-width="1.4"/><line x1="513.85" y1="175.73" x2="510.79" y2="178.3" stroke="#c9bda0" stroke-width="0.7"/><line x1="484.27" y1="146.15" x2="481.7" y2="149.21" stroke="#c9bda0" stroke-width="0.7"/><line x1="450" y1="122.15" x2="446" y2="129.08" stroke="#c9bda0" stroke-width="1.4"/><line x1="412.08" y1="104.47" x2="410.72" y2="108.23" stroke="#c9bda0" stroke-width="0.7"/><line x1="371.68" y1="93.65" x2="370.98" y2="97.59" stroke="#c9bda0" stroke-width="0.7"/><line x1="330" y1="90" x2="330" y2="98" stroke="#c9bda0" stroke-width="1.4"/><line x1="288.32" y1="93.65" x2="289.02" y2="97.59" stroke="#c9bda0" stroke-width="0.7"/><line x1="247.92" y1="104.47" x2="249.28" y2="108.23" stroke="#c9bda0" stroke-width="0.7"/><line x1="210" y1="122.15" x2="214" y2="129.08" stroke="#c9bda0" stroke-width="1.4"/><line x1="175.73" y1="146.15" x2="178.3" y2="149.21" stroke="#c9bda0" stroke-width="0.7"/><line x1="146.15" y1="175.73" x2="149.21" y2="178.3" stroke="#c9bda0" stroke-width="0.7"/><line x1="122.15" y1="210" x2="129.08" y2="214" stroke="#c9bda0" stroke-width="1.4"/><line x1="104.47" y1="247.92" x2="108.23" y2="249.28" stroke="#c9bda0" stroke-width="0.7"/><line x1="93.65" y1="288.32" x2="97.59" y2="289.02" stroke="#c9bda0" stroke-width="0.7"/><line x1="90" y1="330" x2="98" y2="330" stroke="#c9bda0" stroke-width="1.4"/><line x1="93.65" y1="371.68" x2="97.59" y2="370.98" stroke="#c9bda0" stroke-width="0.7"/><line x1="104.47" y1="412.08" x2="108.23" y2="410.72" stroke="#c9bda0" stroke-width="0.7"/><line x1="122.15" y1="450" x2="129.08" y2="446" stroke="#c9bda0" stroke-width="1.4"/><line x1="146.15" y1="484.27" x2="149.21" y2="481.7" stroke="#c9bda0" stroke-width="0.7"/><line x1="175.73" y1="513.85" x2="178.3" y2="510.79" stroke="#c9bda0" stroke-width="0.7"/><line x1="210" y1="537.85" x2="214" y2="530.92" stroke="#c9bda0" stroke-width="1.4"/><line x1="247.92" y1="555.53" x2="249.28" y2="551.77" stroke="#c9bda0" stroke-width="0.7"/><line x1="288.32" y1="566.35" x2="289.02" y2="562.41" stroke="#c9bda0" stroke-width="0.7"/><circle cx="330" cy="330" r="240" fill="none" stroke="#d9cfb8" stroke-width="1"/><circle cx="330" cy="330" r="148" fill="none" stroke="#e7dcc2" stroke-width="1"/><g class="f250-hs f250-hs-ws"><line x1="182" y1="330" x2="90" y2="330" stroke="#e7dcc2" stroke-width="0.8"/><text x="175.45" y="371.41" text-anchor="middle" dominant-baseline="central" font-size="9.5" fill="#b5a98c">1</text><line x1="201.83" y1="404" x2="122.15" y2="450" stroke="#e7dcc2" stroke-width="0.8"/><text x="216.86" y="443.14" text-anchor="middle" dominant-baseline="central" font-size="9.5" fill="#b5a98c">2</text><line x1="256" y1="458.17" x2="210" y2="537.85" stroke="#e7dcc2" stroke-width="0.8"/><text x="288.59" y="484.55" text-anchor="middle" dominant-baseline="central" font-size="9.5" fill="#b5a98c">3</text><line x1="330" y1="478" x2="330" y2="570" stroke="#e7dcc2" stroke-width="0.8"/><text x="371.41" y="484.55" text-anchor="middle" dominant-baseline="central" font-size="9.5" fill="#b5a98c">4</text><line x1="404" y1="458.17" x2="450" y2="537.85" stroke="#e7dcc2" stroke-width="0.8"/><text x="443.14" y="443.14" text-anchor="middle" dominant-baseline="central" font-size="9.5" fill="#b5a98c">5</text><line x1="458.17" y1="404" x2="537.85" y2="450" stroke="#e7dcc2" stroke-width="0.8"/><text x="484.55" y="371.41" text-anchor="middle" dominant-baseline="central" font-size="9.5" fill="#b5a98c">6</text><line x1="478" y1="330" x2="570" y2="330" stroke="#e7dcc2" stroke-width="0.8"/><text x="484.55" y="288.59" text-anchor="middle" dominant-baseline="central" font-size="9.5" fill="#b5a98c">7</text><line x1="458.17" y1="256" x2="537.85" y2="210" stroke="#e7dcc2" stroke-width="0.8"/><text x="443.14" y="216.86" text-anchor="middle" dominant-baseline="central" font-size="9.5" fill="#b5a98c">8</text><line x1="404" y1="201.83" x2="450" y2="122.15" stroke="#e7dcc2" stroke-width="0.8"/><text x="371.41" y="175.45" text-anchor="middle" dominant-baseline="central" font-size="9.5" fill="#b5a98c">9</text><line x1="330" y1="182" x2="330" y2="90" stroke="#e7dcc2" stroke-width="0.8"/><text x="288.59" y="175.45" text-anchor="middle" dominant-baseline="central" font-size="9.5" fill="#b5a98c">10</text><line x1="256" y1="201.83" x2="210" y2="122.15" stroke="#e7dcc2" stroke-width="0.8"/><text x="216.86" y="216.86" text-anchor="middle" dominant-baseline="central" font-size="9.5" fill="#b5a98c">11</text><line x1="201.83" y1="256" x2="122.15" y2="210" stroke="#e7dcc2" stroke-width="0.8"/><text x="175.45" y="288.59" text-anchor="middle" dominant-baseline="central" font-size="9.5" fill="#b5a98c">12</text></g><line x1="96.6" y1="385.91" x2="47.98" y2="397.56" stroke="#7a2e1d" stroke-width="1.6"/><text x="36.31" y="400.35" text-anchor="middle" dominant-baseline="central" font-size="11" font-weight="bold" fill="#7a2e1d">AS</text><line x1="455.65" y1="404.35" x2="329" y2="476" stroke="#3a6ea5" stroke-width="2.4" stroke-opacity="0.9"/><line x1="246.31" y1="449.63" x2="475.53" y2="341.75" stroke="#3a6ea5" stroke-width="1.7" stroke-opacity="0.9"/><line x1="365.57" y1="471.6" x2="433.45" y2="226.97" stroke="#3a6ea5" stroke-width="1.7" stroke-opacity="0.9"/><line x1="455.65" y1="404.35" x2="453.03" y2="408.61" stroke="#c9a227" stroke-width="1" stroke-opacity="0.45"/><line x1="329" y1="476" x2="334.13" y2="475.94" stroke="#c9a227" stroke-width="1" stroke-opacity="0.45"/><line x1="334.13" y1="475.94" x2="208.62" y2="411.14" stroke="#3a6ea5" stroke-width="1" stroke-opacity="0.45"/><line x1="329" y1="476" x2="453.03" y2="408.61" stroke="#3a6ea5" stroke-width="1" stroke-opacity="0.45"/><line x1="455.65" y1="404.35" x2="334.13" y2="475.94" stroke="#3a6ea5" stroke-width="1" stroke-opacity="0.45"/><line x1="246.31" y1="449.63" x2="453.03" y2="408.61" stroke="#b3402e" stroke-width="1" stroke-opacity="0.45"/><line x1="438.05" y1="428.19" x2="433.45" y2="226.97" stroke="#b3402e" stroke-width="1" stroke-opacity="0.45"/><line x1="329" y1="476" x2="208.62" y2="411.14" stroke="#3a6ea5" stroke-width="1" stroke-opacity="0.45"/><line x1="453.03" y1="408.61" x2="334.13" y2="475.94" stroke="#3a6ea5" stroke-width="1" stroke-opacity="0.45"/><line x1="475.53" y1="341.75" x2="329" y2="476" stroke="#b3402e" stroke-width="1" stroke-opacity="0.45"/><line x1="455.65" y1="404.35" x2="246.31" y2="449.63" stroke="#b3402e" stroke-width="1" stroke-opacity="0.45"/><line x1="455.65" y1="404.35" x2="208.62" y2="411.14" stroke="#3a6ea5" stroke-width="1" stroke-opacity="0.45"/><line x1="475.53" y1="341.75" x2="334.13" y2="475.94" stroke="#b3402e" stroke-width="1" stroke-opacity="0.45"/><line x1="453.03" y1="408.61" x2="208.62" y2="411.14" stroke="#3a6ea5" stroke-width="1" stroke-opacity="0.45"/><line x1="317.41" y1="475.46" x2="475.53" y2="341.75" stroke="#b3402e" stroke-width="1.7" stroke-opacity="0.9"/><line x1="536.54" y1="452.23" x2="526.22" y2="446.11" stroke="#5b554a" stroke-width="1.3"/><circle cx="455.65" cy="404.35" r="2.2" fill="#5b554a"/><g transform="translate(489.27 436.18) scale(1.05)" color="#b07d2b" stroke="currentColor" stroke-width="1.6" stroke-linecap="round" fill="none" data-kk="planet:Sun;sign:Taurus" style="cursor:pointer"><circle cx="10" cy="10" r="13" fill="transparent" stroke="none"/><circle cx="10" cy="10" r="5.6"/><circle cx="10" cy="10" r="1.5" fill="currentColor" stroke="none"/></g><text x="481.64" y="434.22" text-anchor="middle" dominant-baseline="central" font-size="8.5" fill="#8a8377">29°</text><line x1="509.66" y1="453.48" x2="524.5" y2="445.1" stroke="#c9bda0" stroke-width="0.6"/><line x1="192.43" y1="526.66" x2="199.31" y2="516.83" stroke="#5b554a" stroke-width="1.3"/><circle cx="246.31" cy="449.63" r="2.2" fill="#5b554a"/><g transform="translate(201.42 488.3) scale(1.05)" color="#8d7960" stroke="currentColor" stroke-width="1.6" stroke-linecap="round" fill="none" data-kk="planet:Moon;sign:Aquarius" style="cursor:pointer"><circle cx="10" cy="10" r="13" fill="transparent" stroke="none"/><path d="M 11.5 3.9 A 6.3 6.3 0 1 0 11.5 16.1 A 7.1 7.1 0 0 1 11.5 3.9 Z" fill="currentColor" stroke="none"/></g><text x="224.53" y="480.77" text-anchor="middle" dominant-baseline="central" font-size="8.5" fill="#8a8377">25°</text><line x1="507.62" y1="491.4" x2="498.74" y2="483.33" stroke="#5b554a" stroke-width="1.3"/><circle cx="438.05" cy="428.19" r="2.2" fill="#5b554a"/><g transform="translate(444.9 482.93) scale(1.05)" color="#7b5ea7" stroke="currentColor" stroke-width="1.6" stroke-linecap="round" fill="none" data-kk="planet:Mercury;sign:Taurus" style="cursor:pointer"><circle cx="10" cy="10" r="13" fill="transparent" stroke="none"/><circle cx="10" cy="8.6" r="3.4"/><path d="M 6.6 2.4 A 3.5 3.5 0 0 0 13.4 2.4"/><line x1="10" y1="12" x2="10" y2="17.4"/><line x1="7.2" y1="14.7" x2="12.8" y2="14.7"/></g><text x="442.01" y="475.98" text-anchor="middle" dominant-baseline="central" font-size="8.5" fill="#8a8377">17°</text><line x1="462.71" y1="502.95" x2="497.26" y2="481.99" stroke="#c9bda0" stroke-width="0.6"/><line x1="388.47" y1="562.77" x2="385.55" y2="551.13" stroke="#5b554a" stroke-width="1.3"/><circle cx="365.57" cy="471.6" r="2.2" fill="#5b554a"/><g transform="translate(369.69 519.29) scale(1.05)" color="#2e8b74" stroke="currentColor" stroke-width="1.6" stroke-linecap="round" fill="none" data-kk="planet:Venus;sign:Aries" style="cursor:pointer"><circle cx="10" cy="10" r="13" fill="transparent" stroke="none"/><circle cx="10" cy="7.2" r="4.1"/><line x1="10" y1="11.3" x2="10" y2="17.6"/><line x1="6.9" y1="14.4" x2="13.1" y2="14.4"/></g><text x="374.83" y="508.46" text-anchor="middle" dominant-baseline="central" font-size="8.5" fill="#8a8377">14°</text><line x1="500.05" y1="160.64" x2="491.55" y2="169.11" stroke="#5b554a" stroke-width="1.3"/><circle cx="433.45" cy="226.97" r="2.2" fill="#5b554a"/><g transform="translate(465.46 174.14) scale(1.05)" color="#c0504d" stroke="currentColor" stroke-width="1.6" stroke-linecap="round" fill="none" data-kk="planet:Mars;sign:Leo" style="cursor:pointer"><circle cx="10" cy="10" r="13" fill="transparent" stroke="none"/><circle cx="8.4" cy="11.6" r="4.3"/><line x1="11.5" y1="8.5" x2="15.9" y2="4.1"/><polyline points="12.3,4.1 15.9,4.1 15.9,7.7" fill="none"/></g><text x="460.37" y="200.16" text-anchor="middle" dominant-baseline="central" font-size="8.5" fill="#8a8377">14°</text><line x1="569.22" y1="349.32" x2="557.26" y2="348.36" stroke="#5b554a" stroke-width="1.3"/><circle cx="475.53" cy="341.75" r="2.2" fill="#5b554a"/><g transform="translate(524.83 336.08) scale(1.05)" color="#5b554a" stroke="currentColor" stroke-width="1.6" stroke-linecap="round" fill="none" data-kk="planet:Jupiter;sign:Gemini" style="cursor:pointer"><circle cx="10" cy="10" r="13" fill="transparent" stroke="none"/><path d="M 4.4 6.4 A 3.5 3.5 0 0 1 11.2 5.6 Q 11.2 9.4 5.2 13.1 L 16 13.1" fill="none"/><line x1="12.9" y1="9.4" x2="12.9" y2="17.4"/></g><text x="513.4" y="344.81" text-anchor="middle" dominant-baseline="central" font-size="8.5" fill="#8a8377">25°</text><line x1="328.36" y1="569.99" x2="328.44" y2="557.99" stroke="#5b554a" stroke-width="1.3"/><circle cx="329" cy="476" r="2.2" fill="#5b554a"/><g transform="translate(303.34 524.86) scale(1.05)" color="#7a2e1d" stroke="currentColor" stroke-width="1.6" stroke-linecap="round" fill="none" data-kk="planet:Saturn;sign:Pisces" style="cursor:pointer"><circle cx="10" cy="10" r="13" fill="transparent" stroke="none"/><line x1="7.4" y1="3.2" x2="7.4" y2="11"/><line x1="4.8" y1="5.8" x2="10" y2="5.8"/><path d="M 7.4 11 Q 7.4 8.9 9.9 8.9 Q 12.9 8.9 12.9 12 Q 12.9 14.6 10.5 16 Q 9.9 16.5 10.4 17.5" fill="none"/></g><text x="315.56" y="513.43" text-anchor="middle" dominant-baseline="central" font-size="8.5" fill="#8a8377">29°</text><line x1="312.9" y1="547.33" x2="328.45" y2="555.99" stroke="#c9bda0" stroke-width="0.6"/><line x1="532.24" y1="459.22" x2="522.13" y2="452.76" stroke="#5b554a" stroke-width="1.3"/><circle cx="453.03" cy="408.61" r="2.2" fill="#5b554a"/><g transform="translate(468.93 461.3) scale(1.05)" color="#3a6ea5" stroke="currentColor" stroke-width="1.6" stroke-linecap="round" fill="none" data-kk="planet:Uranus;sign:Taurus" style="cursor:pointer"><circle cx="10" cy="10" r="13" fill="transparent" stroke="none"/><line x1="5.7" y1="3.4" x2="5.7" y2="11"/><line x1="14.3" y1="3.4" x2="14.3" y2="11"/><line x1="5.7" y1="7.2" x2="14.3" y2="7.2"/><line x1="10" y1="7.2" x2="10" y2="12.3"/><circle cx="10" cy="14.7" r="2.5"/><circle cx="10" cy="14.7" r="0.9" fill="currentColor" stroke="none"/></g><text x="463.47" y="456.66" text-anchor="middle" dominant-baseline="central" font-size="8.5" fill="#8a8377">27°</text><line x1="488.13" y1="480.06" x2="520.44" y2="451.68" stroke="#c9bda0" stroke-width="0.6"/><line x1="336.78" y1="569.9" x2="336.44" y2="557.91" stroke="#5b554a" stroke-width="1.3"/><circle cx="334.13" cy="475.94" r="2.2" fill="#5b554a"/><g transform="translate(335.66 524.86) scale(1.05)" color="#4a5fa5" stroke="currentColor" stroke-width="1.6" stroke-linecap="round" fill="none" data-kk="planet:Neptune;sign:Aries" style="cursor:pointer"><circle cx="10" cy="10" r="13" fill="transparent" stroke="none"/><path d="M 4.6 3.8 Q 4.6 10.4 10 10.4 Q 15.4 10.4 15.4 3.8" fill="none"/><line x1="10" y1="3.4" x2="10" y2="17.2"/><line x1="6.9" y1="14.2" x2="13.1" y2="14.2"/></g><text x="344.44" y="513.43" text-anchor="middle" dominant-baseline="central" font-size="8.5" fill="#8a8377">1°</text><line x1="347.1" y1="547.33" x2="336.39" y2="555.91" stroke="#c9bda0" stroke-width="0.6"/><line x1="130.48" y1="463.38" x2="140.45" y2="456.71" stroke="#5b554a" stroke-width="1.3"/><circle cx="208.62" cy="411.14" r="2.2" fill="#5b554a"/><g transform="translate(149.73 436.18) scale(1.05)" color="#6e3d5e" stroke="currentColor" stroke-width="1.6" stroke-linecap="round" fill="none" data-kk="planet:Pluto;sign:Aquarius" style="cursor:pointer"><circle cx="10" cy="10" r="13" fill="transparent" stroke="none"/><circle cx="10" cy="5.4" r="2.1"/><path d="M 5.8 6 A 4.2 4.2 0 0 0 14.2 6" fill="none"/><line x1="10" y1="10.2" x2="10" y2="17.4"/><line x1="7" y1="14.2" x2="13" y2="14.2"/></g><text x="178.36" y="434.22" text-anchor="middle" dominant-baseline="central" font-size="8.5" fill="#8a8377">3° ℞</text><line x1="431.89" y1="547.3" x2="426.8" y2="536.43" stroke="#5b554a" stroke-width="1.3"/><circle cx="391.98" cy="462.19" r="2.2" fill="#5b554a"/><g transform="translate(406.96 506.01) scale(1.05)" color="#a3622e" stroke="currentColor" stroke-width="1.6" stroke-linecap="round" fill="none"><circle cx="10" cy="14.6" r="3.1"/><line x1="10" y1="2.2" x2="10" y2="11.5"/><line x1="10" y1="7.6" x2="14.4" y2="3.4"/><line x1="10" y1="7.6" x2="14.4" y2="11.4"/></g><text x="408.12" y="496.59" text-anchor="middle" dominant-baseline="central" font-size="8.5" fill="#8a8377">25°</text><line x1="309.3" y1="569.11" x2="310.34" y2="557.15" stroke="#5b554a" stroke-width="1.3"/><circle cx="317.41" cy="475.46" r="2.2" fill="#5b554a"/><g transform="translate(271.41 519.81) scale(1.05)" color="#6b6257" stroke="currentColor" stroke-width="1.6" stroke-linecap="round" fill="none"><circle cx="5.6" cy="15.2" r="1.9"/><circle cx="14.4" cy="15.2" r="1.9"/><path d="M 6.9 13.8 A 6.4 6.4 0 1 1 13.1 13.8" fill="none"/></g><text x="287.05" y="508.92" text-anchor="middle" dominant-baseline="central" font-size="8.5" fill="#8a8377">25° ℞</text><line x1="279.11" y1="541.98" x2="310.51" y2="555.16" stroke="#c9bda0" stroke-width="0.6"/><line x1="350.7" y1="90.89" x2="349.66" y2="102.85" stroke="#5b554a" stroke-width="1.3"/><circle cx="342.59" cy="184.54" r="2.2" fill="#5b554a"/><g transform="translate(337.27 114.27) scale(1.05)" color="#9a917f" stroke="currentColor" stroke-width="1.6" stroke-linecap="round" fill="none"><circle cx="5.6" cy="4.8" r="1.9"/><circle cx="14.4" cy="4.8" r="1.9"/><path d="M 6.9 6.2 A 6.4 6.4 0 1 0 13.1 6.2" fill="none"/></g><text x="345.87" y="146.69" text-anchor="middle" dominant-baseline="central" font-size="8.5" fill="#8a8377">25° ℞</text><line x1="549.85" y1="426.25" x2="538.86" y2="421.44" stroke="#5b554a" stroke-width="1.3"/><circle cx="463.75" cy="388.55" r="2.2" fill="#5b554a"/><g transform="translate(508.21 402.11) scale(1.05)" color="#1d3f8c" stroke="currentColor" stroke-width="1.6" stroke-linecap="round" fill="none"><path d="M 10 2.8 L 8.35 7.73 L 3.34 7.84 L 7.34 10.87 L 5.89 15.66 L 10 12.8 L 14.11 15.66 L 12.66 10.87 L 16.66 7.84 L 11.65 7.73 Z" fill="none" stroke-linejoin="round"/></g><text x="498.56" y="403.79" text-anchor="middle" dominant-baseline="central" font-size="8.5" fill="#8a8377">6°</text><text x="330" y="316" text-anchor="middle" font-size="12" font-weight="bold" fill="#5b554a">VENUS–JUPITER CONJUNCTION PERSONA</text><text x="330" y="333" text-anchor="middle" font-size="9" font-style="italic" fill="#8a8377">19 May 2025 · 23:33:37 UTC-04:00 · Washington, D.C.</text><text x="330" y="348" text-anchor="middle" font-size="9" font-style="italic" fill="#8a8377">family venus-jupiter-2024 · conditional subsidiary · zero vote</text></svg>